<?xml version="1.0" encoding="utf-8" ?>
<svg xmlns="http://www.w3.org/2000/svg" xmlns:xlink="http://www.w3.org/1999/xlink" width="56" height="56" viewBox="0 0 56 56">
	<defs>
		<clipPath id="clipPath9588684710">
			<path transform="matrix(1 0 0 1 0 0)" d="M0 0L56 0L56 56L0 56L0 0Z" fill-rule="nonzero"/>
		</clipPath>
	</defs>
	<g clip-path="url(#clipPath9588684710)">
		<path transform="matrix(1 0 0 1 13.2891 9)" d="M24.9383 21.8633C24.9412 21.869 24.9408 21.8757 24.9362 21.8802L24.7836 22.0305C24.7748 22.0393 24.7663 22.0487 24.7586 22.0584C24.1151 22.8664 23.3808 23.602 22.5719 24.2495C22.4493 24.3476 22.3016 24.4757 22.1898 24.5859L16.7989 29.8968C15.1639 31.5076 12.5387 31.5076 10.9038 29.8968L5.51286 24.5859C5.40103 24.4757 5.25333 24.3476 5.13077 24.2495C4.32076 23.6012 3.58563 22.8644 2.9415 22.0552C2.93546 22.0476 2.92889 22.0402 2.92197 22.0334L2.76825 21.882C2.76299 21.8768 2.76337 21.8687 2.76824 21.8632C2.7746 21.8569 2.7753 21.8469 2.7699 21.8398C1.03025 19.5601 0 16.7248 0 13.65C0 6.11193 6.20394 0 13.8555 0C21.507 0 27.7109 6.11193 27.7109 13.65C27.7109 16.7258 26.6801 19.5619 24.9394 21.8419C24.9347 21.8481 24.9343 21.8566 24.9383 21.8633ZM24.1418 17.0665Q23.5907 18.6646 22.5549 20.0215Q22.4804 20.1035 22.4119 20.1894Q21.6529 21.1425 20.6973 21.9073Q20.3599 22.1773 20.0844 22.4488L14.6935 27.7597Q14.3431 28.1049 13.8513 28.1049Q13.3595 28.1049 13.0092 27.7597L7.61827 22.4488Q7.34273 22.1773 7.00541 21.9073Q6.04852 21.1415 5.28878 20.1869Q5.24454 20.1313 5.198 20.0778Q5.17683 20.0487 5.1549 20.02Q4.11954 18.6632 3.56883 17.0655Q3 15.4152 3 13.65Q3 11.49 3.84556 9.52067Q4.6652 7.61173 6.16383 6.13533Q7.66713 4.65433 9.61656 3.84194Q11.6369 3 13.8555 3Q16.074 3 18.0944 3.84194Q20.0438 4.65432 21.5471 6.13533Q23.0457 7.61172 23.8654 9.52067Q24.7109 11.49 24.7109 13.65Q24.7109 15.4157 24.1418 17.0665ZM5.6792 22.6007Q5.53399 23.1974 5.14152 23.6991Q5.35701 23.4215 5.50438 23.0963Q5.61414 22.8542 5.6792 22.6007Z" fill-rule="evenodd" fill="rgb(27, 71, 110)"/>
		<path transform="matrix(1 0 0 1 23.2207 18.5498)" d="M1.5 3.78125Q1.5 4.7196 2.17688 5.38644Q2.86312 6.0625 3.83817 6.0625Q4.81323 6.0625 5.49946 5.38644Q6.17635 4.7196 6.17635 3.78125Q6.17635 2.8429 5.49946 2.17606Q4.81323 1.5 3.83817 1.5Q2.86311 1.5 2.17688 2.17606Q1.5 2.8429 1.5 3.78125L1.5 3.78125ZM-1.5 3.78125Q-1.5 1.58711 0.0714676 0.0389476Q1.63358 -1.5 3.83817 -1.5Q6.04276 -1.5 7.60488 0.038946Q9.17635 1.58711 9.17635 3.78125Q9.17635 5.97539 7.60488 7.52355Q6.04276 9.0625 3.83817 9.0625Q1.63358 9.0625 0.071467 7.52355Q-1.5 5.97539 -1.5 3.78125L-1.5 3.78125Z" fill-rule="nonzero" fill="rgb(85, 193, 234)"/>
		<path transform="matrix(1 0 0 1 17.4299 42.6562)" d="M1.5 0C0.671573 0 0 0.671573 0 1.5L0 1.50225C0 2.33068 0.671573 3 1.5 3L19.3452 3C20.1737 3 20.8452 2.33068 20.8452 1.50225L20.8452 1.5C20.8452 0.671572 20.1737 0 19.3452 0L1.5 0Z" fill-rule="nonzero" fill="rgb(27, 71, 110)"/>
	</g>
</svg>
