<?xml version="1.0" encoding="utf-8" ?>
<svg xmlns="http://www.w3.org/2000/svg" xmlns:xlink="http://www.w3.org/1999/xlink" width="14.4375" height="10.8846" viewBox="0 0 14.4375 10.8846">
	<path transform="matrix(1 0 0 1 0.21875 0.21875)" d="M0 5.22365C0 5.06339 0.0585774 4.92659 0.175732 4.81327C0.292887 4.69995 0.434306 4.64328 0.599988 4.64328L11.9518 4.64328L8.17544 0.991595C8.05814 0.878288 7.99943 0.741458 7.99931 0.581104C7.99919 0.42075 8.0577 0.283839 8.17484 0.170372C8.29198 0.056904 8.43343 0.000113556 8.59921 2.76742e-07C8.76498 -0.000113003 8.90652 0.056484 9.02382 0.169791L13.8237 4.81275C13.9412 4.92614 14 5.0631 14 5.22365C14 5.38421 13.9412 5.52117 13.8237 5.63456L9.02382 10.2775C8.90651 10.3908 8.76499 10.4473 8.59925 10.4472C8.43352 10.447 8.2921 10.3902 8.17499 10.2768C8.05788 10.1634 7.99937 10.0265 7.99946 9.86616C7.99955 9.70585 8.05821 9.56903 8.17544 9.45571L11.9518 5.80402L0.599988 5.80402C0.434306 5.80402 0.292887 5.74736 0.175732 5.63404C0.0585772 5.52071 0 5.38392 0 5.22365Z" fill-rule="nonzero" fill="rgb(255, 255, 255)"/>
	<path transform="matrix(1 0 0 1 0.21875 0.21875)" d="M-0.21875 5.22365Q-0.21875 4.89051 0.0236443 4.65604Q0.262977 4.42453 0.599988 4.42453L11.9518 4.42453L11.9518 4.64328L11.7997 4.80054L8.02338 1.14885Q7.7808 0.914539 7.78056 0.581264Q7.78032 0.247984 8.02264 0.0132507Q8.26191 -0.218519 8.59906 -0.21875Q8.9362 -0.21898 9.1758 0.0124545L13.9758 4.65552Q14.2188 4.88992 14.2188 5.22365Q14.2188 5.55739 13.9756 5.79198L9.17591 10.4347Q8.93613 10.6662 8.59906 10.6659Q8.262 10.6656 8.02279 10.4339Q7.78052 10.1992 7.78071 9.86604Q7.78089 9.53285 8.02341 9.29843L11.7997 5.64677L11.9518 5.80402L11.9518 6.02277L0.599988 6.02277Q0.262977 6.02277 0.023644 5.79127Q-0.21875 5.5568 -0.21875 5.22365L-0.21875 5.22365ZM0.21875 5.22365Q0.21875 5.3713 0.32782 5.47681Q0.439951 5.58527 0.599988 5.58527L12.4927 5.58527L8.32747 9.613Q8.21829 9.71853 8.21821 9.86629Q8.21813 10.014 8.32718 10.1197Q8.4393 10.2283 8.59944 10.2284Q8.75958 10.2286 8.87174 10.1203L13.6718 5.47713Q13.7812 5.37157 13.7812 5.22365Q13.7812 5.07574 13.6716 4.96998L8.87185 0.327128Q8.75954 0.218641 8.59936 0.21875Q8.43918 0.21886 8.32704 0.327493Q8.21795 0.433162 8.21806 0.580944Q8.21817 0.728733 8.3275 0.834342L12.4927 4.86203L0.599988 4.86203Q0.439951 4.86203 0.32782 4.9705Q0.21875 5.076 0.21875 5.22365L0.21875 5.22365Z" fill-rule="nonzero" fill="rgb(255, 255, 255)"/>
</svg>
