<?xml version="1.0" encoding="utf-8" ?>
<svg xmlns="http://www.w3.org/2000/svg" xmlns:xlink="http://www.w3.org/1999/xlink" width="54" height="54" viewBox="0 0 54 54">
	<path transform="matrix(1 0 0 1 9 18.28)" d="M-0 3.52C0 1.57596 1.57596 -0 3.52 -0L31.68 0C33.624 0 35.2 1.57596 35.2 3.52L35.2 23.76C35.2 25.704 33.624 27.28 31.68 27.28L3.52 27.28C1.57596 27.28 -0 25.704 -0 23.76L0 3.52ZM3.52 3C3.23281 3 3 3.23281 3 3.52L3 23.76C3 24.0472 3.23281 24.28 3.52 24.28L31.68 24.28C31.9672 24.28 32.2 24.0472 32.2 23.76L32.2 3.52C32.2 3.23281 31.9672 3 31.68 3L3.52 3Z" fill-rule="nonzero" fill="rgb(27, 71, 110)"/>
	<path transform="matrix(1 0 0 1 9 18.28)" d="M-0 3.52C0 1.57596 1.57596 -0 3.52 -0L31.68 0C33.624 0 35.2 1.57596 35.2 3.52L35.2 9.68C35.2 11.624 33.624 13.2 31.68 13.2L3.52 13.2C1.57596 13.2 -0 11.624 -0 9.68L0 3.52ZM3.52 3C3.23281 3 3 3.23281 3 3.52L3 9.68C3 9.96719 3.23281 10.2 3.52 10.2L31.68 10.2C31.9672 10.2 32.2 9.96719 32.2 9.68L32.2 3.52C32.2 3.23281 31.9672 3 31.68 3L3.52 3Z" fill-rule="nonzero" fill="rgb(27, 71, 110)"/>
	<path transform="matrix(1 0 0 1 21.3203 23.56)" d="M1.76 0C0.787979 0 0 0.787979 0 1.76L0 10.56C0 11.532 0.787979 12.32 1.76 12.32L8.8 12.32C9.77202 12.32 10.56 11.532 10.56 10.56L10.56 1.76C10.56 0.78798 9.77202 0 8.8 0L1.76 0Z" fill-rule="nonzero" fill="rgb(255, 255, 255)"/>
	<path transform="matrix(1 0 0 1 21.3203 23.56)" d="M-0 1.76C0 0.787979 0.787979 -0 1.76 -0L8.8 0C9.77202 0 10.56 0.787979 10.56 1.76L10.56 10.56C10.56 11.532 9.77202 12.32 8.8 12.32L1.76 12.32C0.787979 12.32 -0 11.532 -0 10.56L0 1.76ZM1.76 3C2.44483 3 3 2.44483 3 1.76L3 10.56C3 9.87517 2.44483 9.32 1.76 9.32L8.8 9.32C8.11517 9.32 7.56 9.87517 7.56 10.56L7.56 1.76C7.56 2.44483 8.11517 3 8.8 3L1.76 3Z" fill-rule="nonzero" fill="rgb(85, 193, 234)"/>
	<path transform="matrix(1 0 0 1 17.8008 13)" d="M16.1 4.39998L16.1 1.76Q16.1 1.6523 16.0238 1.57615Q15.9477 1.5 15.84 1.5L1.76 1.5Q1.6523 1.5 1.57615 1.57615Q1.5 1.6523 1.5 1.76L1.5 4.39998L-1.5 4.39998L-1.5 1.76Q-1.5 1.09775 -1.2432 0.490601Q-0.995636 -0.0947004 -0.545168 -0.545168Q-0.0947004 -0.995636 0.490601 -1.2432Q1.09775 -1.5 1.76 -1.5L15.84 -1.5Q16.5022 -1.5 17.1094 -1.2432Q17.6947 -0.995636 18.1452 -0.545168Q18.5956 -0.0947007 18.8432 0.490601Q19.1 1.09775 19.1 1.76L19.1 4.39998L16.1 4.39998Z" fill-rule="nonzero" fill="rgb(27, 71, 110)"/>
</svg>
