<?xml version="1.0" encoding="utf-8" ?>
<svg xmlns="http://www.w3.org/2000/svg" xmlns:xlink="http://www.w3.org/1999/xlink" width="18" height="18" viewBox="0 0 18 18">
	<path transform="matrix(1 0 0 1 0 0)" d="M9 0C4.02891 0 0 4.02891 0 9C0 13.9711 4.02891 18 9 18C13.9711 18 18 13.9711 18 9C18 4.02891 13.9711 0 9 0ZM11.5707 16.4211C12.5182 16.0191 13.3697 15.4419 14.1021 14.7057C14.8007 14.0034 15.3554 13.1904 15.75 12.2915C15.4638 12.5488 15.1794 12.6793 14.9838 12.6793C14.8541 12.6793 14.7652 12.6221 14.7403 12.5077C14.6727 12.1915 14.5554 11.8895 14.367 11.6286C14.1714 11.3552 13.9475 11.08 13.7199 10.8656C12.9484 10.1401 12.3422 8.86419 14.7065 7.04152C14.4185 6.26242 14.8789 5.57624 15.382 5.57624C15.4851 5.57624 15.59 5.60662 15.6913 5.66916C15.2967 4.82037 14.7634 4.05378 14.0986 3.38547C13.3679 2.65104 12.5147 2.07386 11.5672 1.67001C10.9432 1.40376 10.2926 1.22149 9.62598 1.125C10.2446 1.6307 10.1771 2.42231 9.51576 2.47056C9.37888 2.47949 9.26867 2.58671 9.25978 2.7243C9.23312 3.10492 9.19756 3.55165 9.15668 3.94835C9.06602 4.80608 8.05453 4.56841 7.77188 4.99549C7.54968 5.34394 8.04031 5.70669 8.71937 5.70669C8.86159 5.70669 9.01269 5.69061 9.16734 5.65487C9.29207 5.62497 9.2863 5.53521 9.28084 5.45021C9.27619 5.37772 9.27175 5.30868 9.34866 5.28319C9.57265 5.20992 9.82152 5.18312 10.0295 5.18312C10.273 5.18312 10.4579 5.22064 10.4739 5.26174C10.5087 5.35405 10.235 5.83907 9.85438 6.51378C9.68973 6.80561 9.50506 7.13294 9.31667 7.47932C9.20639 7.68131 9.24813 7.99705 9.28472 8.27384C9.30122 8.39863 9.31667 8.5155 9.31667 8.61045C9.31667 9.34845 9.22067 9.61113 9.07846 9.61113C8.7336 9.61113 8.11853 8.06901 7.96209 8.06901C7.95676 8.06901 7.95321 8.0708 7.94965 8.07258C7.91765 8.09403 7.86966 8.10296 7.80922 8.10296C7.51946 8.10296 6.96661 7.8921 6.67507 7.8921C6.66085 7.8921 6.64663 7.8921 6.63241 7.89389C6.30532 7.92069 6.46353 8.60866 6.13289 8.60866L6.124 8.60866C5.7578 8.59973 5.65114 8.54255 5.62981 8.54255C5.62259 8.54255 5.62442 8.54836 5.62925 8.56376C5.63513 8.58251 5.64546 8.61546 5.64936 8.66942C5.66536 8.95711 5.77025 9.68261 5.77025 10.7029C5.77025 10.7905 5.82357 10.8227 5.9089 10.8227C6.124 10.8227 6.5453 10.6243 6.87595 10.6243L6.90617 10.6243C7.43057 10.6475 7.75944 11.08 8.09719 11.2408C8.73893 11.5464 9.31667 12.4273 9.75752 12.4649C10.1771 12.5006 9.91574 13.1242 10.3104 13.1242C10.3317 13.1242 10.3548 13.1224 10.3815 13.1189C10.4153 13.1135 10.4508 13.1117 10.4846 13.1117C11.0837 13.1117 11.6934 13.8658 10.9112 14.5484C10.3424 15.0452 10.2108 15.7046 9.93529 16.875C10.0153 16.8536 10.0864 16.8446 10.1486 16.8446C10.1806 16.8446 10.2108 16.8464 10.2375 16.8518C10.6926 16.7499 11.137 16.6052 11.5707 16.4211ZM6.15559 16.2301C5.17558 15.8101 4.29302 15.2098 3.53733 14.446C2.7798 13.6803 2.18591 12.7901 1.77221 11.7995C1.34196 10.7736 1.125 9.68268 1.125 8.5583C1.125 8.01934 1.17464 7.48782 1.27393 6.9693C1.39345 7.01576 1.52767 7.04178 1.65821 7.04178C1.83656 7.04178 2.01307 6.99718 2.15649 6.90054C2.30358 6.80204 2.47458 6.75 2.64374 6.75C2.78899 6.75 2.93425 6.78903 3.06295 6.86894C3.21188 6.96187 3.31669 7.08453 3.31669 7.29268C3.31669 8.8092 3.36817 10.4279 4.73062 10.4502C4.77107 10.4502 5.48815 10.7271 5.83014 11.6267C5.87059 11.7307 5.94782 11.7642 6.05446 11.7642C6.26591 11.7642 6.58767 11.6267 6.92966 11.6267C7.07624 11.6267 7.05469 11.7709 7.00964 12.0724C6.97615 12.2966 6.92966 12.6078 6.92966 13.0112C6.9315 13.9479 8.93932 15.3994 8.93932 15.3994C8.92829 15.9941 8.95587 16.4866 9 16.875C8.01631 16.8341 7.06021 16.6167 6.15559 16.2301Z" fill-rule="evenodd" fill="rgb(0, 0, 0)"/>
</svg>
