<?xml version="1.0" encoding="utf-8" ?>
<svg xmlns="http://www.w3.org/2000/svg" xmlns:xlink="http://www.w3.org/1999/xlink" width="14" height="14" viewBox="0 0 14 14">
	<path transform="matrix(1 0 0 1 1 3)" d="M0.84375 0L11.1562 0C11.6215 0 12 0.385938 12 0.860294L12 8.31618C12 8.79053 11.6215 9.17647 11.1562 9.17647L0.84375 9.17647C0.378516 9.17647 0 8.79053 0 8.31618L0 0.860294C0 0.385938 0.378516 0 0.84375 0ZM6.23524 4.94549L10.0016 2.35625C10.195 2.22362 10.2466 1.95597 10.1165 1.75882C9.98641 1.56167 9.72391 1.51029 9.53055 1.64292L5.99969 4.06967L2.47118 1.64292C2.27782 1.51029 2.01532 1.56167 1.88524 1.75882C1.75516 1.95597 1.80555 2.22362 1.99891 2.35625L5.76414 4.9443C5.83563 4.99329 5.91766 5.01838 5.99969 5.01838C6.08172 5.01838 6.16375 4.99448 6.23524 4.94549Z" fill-rule="evenodd" fill="rgb(255, 255, 255)"/>
</svg>
