<?xml version="1.0" encoding="utf-8" ?>
<svg xmlns="http://www.w3.org/2000/svg" xmlns:xlink="http://www.w3.org/1999/xlink" width="56" height="56" viewBox="0 0 56 56">
	<defs>
		<clipPath id="clipPath2727826660">
			<path transform="matrix(1 0 0 1 0 0)" d="M0 0L56 0L56 56L0 56L0 0Z" fill-rule="nonzero"/>
		</clipPath>
	</defs>
	<g clip-path="url(#clipPath2727826660)">
		<path transform="matrix(1 0 0 1 9.51953 16)" d="M-0 3.36C0 1.50432 1.50432 -0 3.36 -0L33.6 0C35.4557 0 36.96 1.50432 36.96 3.36L36.96 24.64C36.96 26.4957 35.4557 28 33.6 28L3.36 28C1.50432 28 -0 26.4957 -0 24.64L0 3.36ZM3.36 3C3.16118 3 3 3.16118 3 3.36L3 24.64C3 24.8388 3.16118 25 3.36 25L33.6 25C33.7988 25 33.96 24.8388 33.96 24.64L33.96 3.36C33.96 3.16118 33.7988 3 33.6 3L3.36 3Z" fill-rule="nonzero" fill="rgb(27, 71, 110)"/>
		<path transform="matrix(1 0 0 1 15.0996 22.3999)" d="M13.6203 10.3986L25.2209 2.42372C25.8164 2.01523 25.9752 1.19087 25.5746 0.583648C25.1739 -0.0235759 24.3654 -0.181822 23.7699 0.226674L12.8948 7.70105L2.027 0.226674C1.43146 -0.181822 0.622956 -0.0235759 0.222315 0.583648C-0.178326 1.19087 -0.0231226 2.01523 0.572424 2.42372L12.1693 10.3949C12.3895 10.5458 12.6422 10.6231 12.8948 10.6231C13.1475 10.6231 13.4001 10.5495 13.6203 10.3986Z" fill-rule="evenodd" fill="rgb(85, 193, 234)"/>
		<path transform="matrix(1 0 0 1 15.0996 22.3999)" d="M13.422 10.1102L25.0226 2.1353Q25.351 1.91 25.4276 1.51209Q25.5044 1.11281 25.2824 0.7764Q25.0629 0.443611 24.6776 0.367655Q24.2935 0.291926 23.9679 0.515302L12.8948 8.12579L1.82867 0.515055Q1.50337 0.291926 1.11927 0.367655Q0.734028 0.443611 0.514457 0.7764Q0.291936 1.11366 0.36767 1.51299Q0.443072 1.91057 0.770399 2.13509L12.3676 10.1065Q12.6107 10.2731 12.8948 10.2731Q13.1843 10.2731 13.4225 10.1099L13.422 10.1102ZM13.8182 10.6873Q13.4012 10.9731 12.8948 10.9731Q12.3939 10.9731 11.9711 10.6834L0.37445 2.71235Q-0.19089 2.32457 -0.320071 1.64342Q-0.448708 0.965142 -0.0698262 0.390896Q0.311124 -0.186484 0.983866 -0.319123Q1.65666 -0.451773 2.22534 -0.0617067L13.0932 7.41267L12.8948 7.70105L12.6966 7.41261L23.5719 -0.0619535Q24.1402 -0.451773 24.813 -0.319123Q25.4858 -0.186485 25.8667 0.390896Q26.2456 0.965181 26.115 1.64432Q25.9841 2.3246 25.4191 2.71214L13.8186 10.687L13.8182 10.6873Z" fill-rule="nonzero" fill="rgb(85, 193, 234)"/>
	</g>
</svg>
