<?xml version="1.0" encoding="utf-8" ?>
<svg xmlns="http://www.w3.org/2000/svg" xmlns:xlink="http://www.w3.org/1999/xlink" width="54" height="54" viewBox="0 0 54 54">
	<path transform="matrix(1 0 0 1 9 10.63)" d="M31.41 14.2492C31.2825 13.685 31.6551 13.1762 32.2334 13.1762L33.6349 13.1762C34.045 13.1762 34.3913 13.4441 34.4751 13.8456C34.7161 15 34.842 16.196 34.842 17.4215C34.842 26.9325 27.221 34.6633 17.7521 34.8399L17.4214 34.843L17.0899 34.8399C14.8635 34.8006 12.7239 34.3496 10.6711 33.487C8.61827 32.6245 6.7987 31.4119 5.21238 29.8493L5.21238 32.2928C5.21238 33.1433 4.5229 33.8328 3.67238 33.8328L3.67007 33.8328C2.81955 33.8328 2.13238 33.1433 2.13238 32.2928L2.13238 24.249C2.13238 24.0136 2.32322 23.8228 2.55864 23.8228L9.54409 23.8228C10.3945 23.8228 11.0839 24.5122 11.0839 25.3626L11.0839 25.3649C11.0839 26.2154 10.3942 26.9026 9.54365 26.9023L7.41968 26.9017L7.55727 27.0722C9.85702 29.8503 13.1341 31.4047 17.4821 31.762L17.6792 31.7599L17.8804 31.7558L18.1176 31.7456L18.174 31.7425L18.2356 31.7394L18.3013 31.7353L18.3547 31.7322L18.3147 31.7342L18.3814 31.7312C18.6145 31.7158 18.8465 31.6942 19.0765 31.6675L19.1 31.6655L19.1103 31.6634L19.1339 31.6603L19.1227 31.6624L19.1576 31.6583L19.1339 31.6603L19.1709 31.6562L19.175 31.6552L19.3372 31.6357L19.3454 31.6347L19.404 31.6254L19.483 31.6152L19.6329 31.5926L19.6021 31.5977L19.6668 31.5864L19.8372 31.5587L19.7664 31.571L19.8044 31.5659L19.9748 31.5351L20.1216 31.5084L20.2191 31.4889L20.1391 31.5053L20.291 31.4745L20.4296 31.4468L20.5271 31.4242L20.5847 31.4129L20.6185 31.4037L20.7325 31.378L20.8721 31.3441L20.7982 31.3616L20.8937 31.339L20.9491 31.3246L20.8998 31.3369L21.0199 31.3061L20.9502 31.3246L21.022 31.3072L21.0723 31.2928L21.06 31.2969L21.2017 31.2589L21.2981 31.2312L21.2037 31.2579L21.3269 31.224L21.3741 31.2096L21.4039 31.2024L21.4922 31.1767L21.5589 31.1552L21.6308 31.1347L21.7704 31.0905L21.6431 31.1305L21.7715 31.0905L21.7817 31.0874L21.9255 31.0412L22.0671 30.993L22.2006 30.9468L22.3156 30.9047L22.2294 30.9365L22.3567 30.8903L22.4491 30.8554L22.5394 30.8215L22.6071 30.7959L22.6493 30.7794L22.7304 30.7486L22.8012 30.7189L22.8874 30.6829L22.8977 30.6788L22.9737 30.647L22.9932 30.6388L23.14 30.5761L23.2037 30.5484L23.2981 30.5064L23.3443 30.4858L23.3617 30.4776L23.3638 30.4766L23.4644 30.4304L23.4747 30.4252L23.5671 30.3832L23.7047 30.3154L23.7252 30.3051L23.8433 30.2476L23.91 30.2138L24.0219 30.1552L24.0466 30.1439C24.1236 30.1029 24.2006 30.0628 24.2755 30.0207L24.4131 29.9447L24.5537 29.8657L24.6657 29.8L24.5825 29.8472L24.7046 29.7784C24.7868 29.7302 24.8669 29.6809 24.9469 29.6316L24.8515 29.6881L25.0568 29.5628C25.1022 29.5343 25.1474 29.5056 25.1924 29.4765C25.2374 29.4474 25.2822 29.418 25.3268 29.3883L25.3925 29.3441L25.4511 29.3052L25.5537 29.2343L25.6256 29.184L25.6769 29.1491L25.6964 29.1347L25.7406 29.1029L25.797 29.0639L25.9171 28.9766L25.9377 28.9602L25.9449 28.9551L26.03 28.8914L26.0506 28.876L26.1687 28.7867L26.182 28.7754L26.2488 28.723L26.4089 28.5968L26.645 28.4017L26.7601 28.3062L26.8247 28.2477L26.8473 28.2282L26.8658 28.2118L26.873 28.2076C26.9429 28.1459 27.0124 28.0837 27.0813 28.0209C27.1503 27.9581 27.2188 27.8947 27.2867 27.8308L27.4756 27.6481L27.6604 27.4623L27.7467 27.3729L27.8329 27.2836L27.9345 27.1748L28.0383 27.0619L28.0937 27.0003L28.1265 26.9644L28.1419 26.9469L28.1635 26.9212L28.2395 26.835L28.3206 26.7415L28.3329 26.7272L28.4068 26.6389L28.4253 26.6183L28.4468 26.5927L28.5392 26.4787L28.5115 26.5136L28.5454 26.4716L28.6131 26.3894L28.7128 26.2641L28.7138 26.2611L28.7507 26.2138L28.7846 26.1717L28.7128 26.2641C28.8318 26.1122 28.9489 25.9561 29.0618 25.8001L29.1193 25.718L29.1511 25.6748L29.2394 25.5475L29.1778 25.6369C29.3007 25.4612 29.4196 25.2829 29.5344 25.102C29.6493 24.921 29.7601 24.7376 29.8667 24.5517L29.915 24.4644L30.0176 24.2817C30.1551 24.0298 30.285 23.7741 30.4071 23.5145C30.5292 23.2548 30.6434 22.9917 30.7497 22.7252L30.8348 22.5076C30.92 22.2827 30.9993 22.0558 31.073 21.8268C31.1466 21.5979 31.2144 21.3673 31.2763 21.1349L31.3441 20.8741C31.4644 20.3882 31.5589 19.8973 31.6275 19.4014C31.6962 18.9055 31.7386 18.4074 31.7548 17.9071L31.762 17.4215L31.7589 17.1011C31.7447 16.4354 31.6844 15.7738 31.578 15.1165C31.5309 14.8253 31.4749 14.5362 31.41 14.2492ZM17.4215 4.30078e-12C21.9203 4.30078e-12 26.0209 1.70531 29.1121 4.50498L29.1121 2.0328C29.1121 1.18228 29.8016 0.492799 30.6521 0.492799L30.6544 0.492799C31.5049 0.492799 32.1921 1.18228 32.1921 2.0328L32.1921 10.1713C32.1921 10.3544 32.0437 10.5028 31.8606 10.5028L24.7808 10.5028C23.9302 10.5028 23.2406 9.81322 23.2406 8.96259L23.2406 8.96028C23.2406 8.10981 23.93 7.42261 24.7804 7.42238L26.9859 7.42179C24.7816 4.94956 21.7397 3.52352 17.7849 3.12004L17.3609 3.08L17.1176 3.08308L16.8681 3.0903L16.7418 3.0954L16.6648 3.09949L16.5858 3.10363L16.4277 3.11388L16.2398 3.12827L16.0868 3.14059L15.94 3.15493L15.8168 3.16831L15.4852 3.20936L15.1566 3.25763L15.0057 3.28227L15.0663 3.27197L14.9308 3.2956L14.8805 3.30378L14.7963 3.31918L14.5417 3.36952L14.2409 3.4342L14.1639 3.45167L14.2019 3.44243L13.9319 3.50711C13.8676 3.52332 13.8035 3.53998 13.7395 3.55709C13.6755 3.5742 13.6116 3.59176 13.5479 3.60976L13.5879 3.59744L13.5017 3.62208L13.3785 3.65803L13.3712 3.66005L13.2245 3.70423L13.1978 3.7114L13.1649 3.72165L13.0797 3.74937C13.0417 3.76068 13.0027 3.773 12.9647 3.78633L13.0643 3.75351L12.7799 3.84793C12.639 3.89608 12.4989 3.94643 12.3596 3.99898C12.2203 4.05153 12.0818 4.10625 11.9442 4.16315L11.9247 4.17032L11.7913 4.22576L11.8169 4.21551L11.7923 4.22576L11.7574 4.24116L11.8169 4.21652C11.7255 4.25454 11.6352 4.29453 11.5459 4.33457L11.6136 4.30483L11.5027 4.35411L11.4955 4.35719L11.4801 4.36436L11.3775 4.41157L11.2307 4.4814L11.2266 4.48241L11.09 4.54916L10.9114 4.63848L10.818 4.68776L10.7574 4.71856L10.706 4.74628L10.665 4.76784L10.6403 4.78016L10.6065 4.79864L10.5992 4.80273L10.5664 4.82121L10.5592 4.82535C10.4503 4.88466 10.3422 4.94538 10.235 5.00751C10.1277 5.06963 10.0212 5.13314 9.91554 5.19803L9.89398 5.21136L9.89191 5.21237L9.80158 5.26887L9.68863 5.34072C9.64307 5.3699 9.5977 5.39937 9.55252 5.42915C9.50735 5.45892 9.46237 5.48899 9.41759 5.51936L9.51408 5.45468L9.3981 5.53269L9.39194 5.53577L9.29131 5.60459L9.21532 5.65695L9.26874 5.621L9.05006 5.775L9.049 5.77601L9.03158 5.78833L8.93711 5.85715L8.82522 5.94031L8.81289 5.94955L8.78619 5.97005L8.56034 6.1446C8.50808 6.18563 8.45611 6.22702 8.40443 6.26877C8.35275 6.31052 8.30136 6.35263 8.25027 6.39509L8.19589 6.44129L8.09319 6.52859L8.06032 6.55525L7.76262 6.82013C7.60455 6.96424 7.44976 7.11179 7.29825 7.26279C7.14674 7.41378 6.99866 7.56807 6.85401 7.72565L6.57373 8.03981L6.43407 8.20411L6.41357 8.22769L6.32117 8.34064L6.22771 8.4546L6.17535 8.52029L6.11991 8.59113L6.03165 8.70407L5.96697 8.79031L5.95975 8.80057L5.94642 8.81597L5.8879 8.89605L5.87149 8.91761L5.77495 9.0511L5.72774 9.11578L5.6877 9.17122L5.69078 9.16815L5.66513 9.20612L5.60045 9.29852L5.55733 9.36012L5.51729 9.41965L5.51315 9.42686L5.50189 9.44227L5.44231 9.53158L5.42797 9.55517L5.36223 9.6558L5.32118 9.71946L5.31396 9.73073L5.13845 10.0151L4.92487 10.3806L4.72159 10.7523C4.6867 10.819 4.65181 10.8857 4.61793 10.9545L4.59945 10.9884L4.59738 10.9935L4.46697 11.2605C4.44239 11.3122 4.41813 11.3641 4.39418 11.4161C4.37022 11.4681 4.34659 11.5203 4.32326 11.5726L4.30271 11.6198L4.29347 11.6383L4.28116 11.667C4.05344 12.1863 3.85742 12.7172 3.69308 13.2598C3.52874 13.8025 3.39726 14.353 3.29864 14.9113L3.25142 15.1946C3.19394 15.563 3.15089 15.933 3.12227 16.3047C3.09365 16.6764 3.07954 17.0487 3.07995 17.4215C3.07995 18.4757 3.19397 19.504 3.40991 20.494C3.53281 21.0574 3.09786 21.6472 2.52116 21.6472L1.24869 21.6472C0.837611 21.6472 0.436821 21.3352 0.354401 20.9325C0.260798 20.4751 0.185636 20.0143 0.128914 19.5502C0.0425287 18.8432 -0.000441583 18.1337 3.42094e-06 17.4215C3.42094e-06 16.2511 0.114974 15.1084 0.334664 14.0037C1.92293 6.01831 8.96891 -5.87463e-06 17.4215 4.30078e-12Z" fill-rule="nonzero" fill="rgb(27, 71, 110)"/>
	<path transform="matrix(1 0 0 1 20.2114 20.3188)" d="M9.56327 0.455839C10.0314 -0.0862404 10.8692 -0.13552 11.4113 0.332639C11.9041 0.77616 12.0026 1.51536 11.633 2.05744L11.5345 2.18064L8.83042 5.26066L10.5737 5.26066C10.9345 5.24002 11.2497 5.35 11.5193 5.59058C11.7889 5.83116 11.9339 6.13184 11.9543 6.49261C11.9748 6.85339 11.8646 7.16851 11.6239 7.43798C11.3831 7.70745 11.0824 7.85229 10.7216 7.8725L7.2715 7.8725L7.2715 10.509L9.90845 10.509C10.2691 10.4886 10.5841 10.5986 10.8535 10.8392Q11.2577 11.2001 11.2883 11.741C11.3087 12.1016 11.1986 12.4166 10.9581 12.6861C10.7175 12.9555 10.4169 13.1004 10.0563 13.1208L7.2715 13.1208L7.2715 14.4514C7.29191 14.812 7.18183 15.127 6.94127 15.3965Q6.58043 15.8006 6.0395 15.8312Q5.49857 15.8618 5.09442 15.501C4.82499 15.2604 4.68007 14.9598 4.65966 14.5992L4.65966 13.1208L2.02365 13.1208C1.66303 13.1412 1.34801 13.0312 1.07858 12.7906Q0.674433 12.4297 0.643815 11.8888Q0.613196 11.3479 0.974039 10.9437C1.2146 10.6743 1.51519 10.5294 1.87581 10.509L4.65966 10.509L4.65966 7.8725L1.38301 7.8725Q0.841875 7.90345 0.43745 7.54258Q0.0330289 7.1817 0.00239565 6.64054Q-0.0282347 6.09939 0.332882 5.69518C0.573626 5.4257 0.87439 5.28086 1.23517 5.26066L3.05196 5.26066L0.347909 2.18064C-0.144891 1.63856 -0.0956104 0.8008 0.446468 0.33264C0.939268 -0.11088 1.70311 -0.11088 2.19591 0.33264L2.31911 0.45584L5.91655 4.57072L9.56327 0.455839Z" fill-rule="evenodd" fill="rgb(85, 193, 234)"/>
</svg>
