<?xml version="1.0" encoding="utf-8" ?>
<svg xmlns="http://www.w3.org/2000/svg" xmlns:xlink="http://www.w3.org/1999/xlink" width="24" height="24" viewBox="0 0 24 24">
	<path transform="matrix(1 0 0 1 0 0)" d="M2 0C0.895431 0 0 0.895431 0 2L0 22C0 23.1046 0.89543 24 2 24L22 24C23.1046 24 24 23.1046 24 22L24 2C24 0.895431 23.1046 0 22 0L2 0Z" fill-rule="nonzero" fill="rgb(0, 141, 194)"/>
	<path transform="matrix(1 0 0 1 3.3066 3.8436)" d="M17.1114 15.9468L13.5558 15.9468L13.4718 9.63C13.4718 9.63 13.5558 7.9452 11.7258 7.9668C9.897 7.9872 9.633 9.63 9.633 9.63L9.633 15.9468L6.0522 15.9468L6.0522 5.3124L9.4842 5.3124L9.4842 6.7788C9.4842 6.7788 9.6258 6.3012 10.4166 5.7396C11.2062 5.178 12.5166 5.0532 13.0782 5.0736C13.6398 5.0952 14.409 4.9968 15.6978 5.8848C17.0766 6.8328 17.1114 9.3156 17.1114 9.3156L17.1114 15.9456L17.1114 15.9468ZM2.0118 4.0248C1.45609 4.02463 0.981822 3.82802 0.588994 3.43496C0.196166 3.0419 -0.000165701 2.56751 0 2.0118C0.000165939 1.45609 0.19678 0.981822 0.589843 0.588994C0.982906 0.196165 1.45729 -0.000165834 2.013 1.051e-07C2.56871 1.051e-07 3.04304 0.196473 3.43598 0.589418C3.82893 0.982364 4.0254 1.45669 4.0254 2.0124C4.0254 2.56811 3.82893 3.04244 3.43598 3.43538C3.04304 3.82833 2.56871 4.0248 2.013 4.0248L2.0118 4.0248ZM3.7842 15.9468L0.2406 15.9468L0.2406 5.3124L3.7854 5.3124L3.7854 15.9444L3.7842 15.9468Z" fill-rule="nonzero" fill="rgb(255, 255, 255)"/>
</svg>
