<?xml version="1.0" encoding="utf-8" ?>
<svg xmlns="http://www.w3.org/2000/svg" xmlns:xlink="http://www.w3.org/1999/xlink" width="14" height="14" viewBox="0 0 14 14">
	<path transform="matrix(1 0 0 1 1 1.15625)" d="M2.72656 3.72656L2.72656 11.4688L0.148438 11.4688L0.148438 3.72656L2.72656 3.72656ZM2.89062 1.33594C2.89583 1.71615 2.76432 2.03385 2.49609 2.28906C2.22786 2.54427 1.875 2.67188 1.4375 2.67188L1.42188 2.67188C0.994792 2.67188 0.651042 2.54427 0.390625 2.28906C0.130208 2.03385 0 1.71615 0 1.33594C0 0.950521 0.134115 0.631511 0.402344 0.378906C0.670573 0.126302 1.02083 -6.95388e-08 1.45313 0C1.88542 6.95388e-08 2.23177 0.126302 2.49219 0.378906C2.7526 0.63151 2.88542 0.950521 2.89062 1.33594ZM12 7.03125L12 11.4688L9.42969 11.4688L9.42969 7.32813C9.42969 6.78125 9.32422 6.35287 9.11328 6.04297C8.90234 5.73307 8.57292 5.57813 8.125 5.57813C7.79688 5.57813 7.52214 5.66797 7.30078 5.84766C7.07943 6.02734 6.91406 6.25 6.80469 6.51562C6.7474 6.67188 6.71875 6.88281 6.71875 7.14844L6.71875 11.4688L4.14844 11.4688C4.15885 9.39062 4.16406 7.70573 4.16406 6.41406C4.16406 5.1224 4.16146 4.35156 4.15625 4.10156L4.14844 3.72656L6.71875 3.72656L6.71875 4.85156L6.70312 4.85156C6.80729 4.6849 6.91406 4.53906 7.02344 4.41406C7.13281 4.28906 7.27995 4.15365 7.46484 4.00781C7.64974 3.86198 7.8763 3.7487 8.14453 3.66797C8.41276 3.58724 8.71094 3.54687 9.03906 3.54687C9.92969 3.54687 10.6458 3.84245 11.1875 4.43359C11.7292 5.02474 12 5.89063 12 7.03125Z" fill-rule="nonzero" fill="rgb(255, 255, 255)"/>
</svg>
