<?xml version="1.0" encoding="utf-8" ?>
<svg xmlns="http://www.w3.org/2000/svg" xmlns:xlink="http://www.w3.org/1999/xlink" width="14" height="14" viewBox="0 0 14 14">
	<defs>
		<clipPath id="clipPath8247126614">
			<path transform="matrix(1 0 0 1 0 0)" d="M0 0L14 0L14 14L0 14L0 0Z" fill-rule="nonzero"/>
		</clipPath>
	</defs>
	<g clip-path="url(#clipPath8247126614)">
		<path transform="matrix(1 0 0 1 1.40023 0)" d="M5.6105 14L5.6 14C5.47792 13.9999 5.36076 13.9758 5.24852 13.9278C5.13628 13.8798 5.03796 13.8117 4.95355 13.7235C4.82125 13.5852 3.62145 12.32 2.42795 10.717C0.816895 8.554 0 6.8285 0 5.59055C0 2.50775 2.5123 0 5.6 0C8.6877 0 11.2 2.50775 11.2 5.5902C11.2 6.3392 10.9112 7.25689 10.3421 8.31705C9.793 9.33939 8.96735 10.5269 7.8876 11.8471L7.87885 11.8576L6.272 13.6951C6.18882 13.7912 6.08953 13.8658 5.97415 13.919C5.85876 13.9721 5.73755 13.9991 5.6105 14ZM5.6 8.20714C7.0455 8.20714 8.2215 7.03325 8.2215 5.59021C8.2215 4.14717 7.0455 2.97324 5.6 2.97324C4.1545 2.97324 2.9785 4.14713 2.9785 5.59018C2.9785 7.03324 4.1545 8.20714 5.6 8.20714Z" fill-rule="nonzero" fill="rgb(255, 255, 255)"/>
	</g>
</svg>
