<?xml version="1.0" encoding="utf-8" ?>
<svg xmlns="http://www.w3.org/2000/svg" xmlns:xlink="http://www.w3.org/1999/xlink" width="56" height="56" viewBox="0 0 56 56">
	<defs>
		<clipPath id="clipPath8397857139">
			<path transform="matrix(1 0 0 1 0 0)" d="M0 0L56 0L56 56L0 56L0 0Z" fill-rule="nonzero"/>
		</clipPath>
	</defs>
	<g clip-path="url(#clipPath8397857139)">
		<path transform="matrix(1 0 0 1 8.99992 11)" d="M-0 4.2C0 1.8804 1.8804 -0 4.2 -0L33.8009 0C36.1205 0 38.0009 1.8804 38.0009 4.2L38.0009 25.2071C38.0009 27.5267 36.1205 29.4071 33.8009 29.4071L4.2 29.4071C1.8804 29.4071 -0 27.5267 -0 25.2071L0 4.2ZM4.2 3C3.53726 3 3 3.53726 3 4.2L3 25.2071C3 25.8698 3.53726 26.4071 4.2 26.4071L33.8009 26.4071C34.4637 26.4071 35.0009 25.8698 35.0009 25.2071L35.0009 4.2C35.0009 3.53726 34.4637 3 33.8009 3L4.2 3Z" fill-rule="nonzero" fill="rgb(27, 71, 110)"/>
		<path transform="matrix(1 0 0 1 17.6365 42.7595)" d="M1.5 0C0.671573 0 0 0.671573 0 1.5L0 1.50225C0 2.33068 0.671573 3 1.5 3L19.2278 3C20.0562 3 20.7278 2.33068 20.7278 1.50225L20.7278 1.5C20.7278 0.671573 20.0562 0 19.2278 0L1.5 0Z" fill-rule="nonzero" fill="rgb(27, 71, 110)"/>
		<path transform="matrix(1 0 0 1 19.0342 20.3259)" d="M7.4838 12.267L7.48627 12.267L7.48627 12.267C8.24611 12.2652 8.85149 11.5958 9.43192 11.1054L18.2235 3.67798C18.928 3.08276 19.0238 2.03203 18.4386 1.31921L18.437 1.31724C17.8417 0.59049 16.7681 0.494083 16.0492 1.09881L7.56729 8.23399L3.47534 4.05413C2.83199 3.39696 1.77418 3.39696 1.13083 4.05413L1.12913 4.05587C0.502074 4.69673 0.506967 5.72039 1.13836 6.35697L5.58872 10.8439C5.86318 11.1206 6.80465 12.1482 7.18475 12.2344C7.28364 12.2568 7.38371 12.2669 7.4838 12.267Z" fill-rule="nonzero" fill="rgb(85, 193, 234)"/>
	</g>
</svg>
