<?xml version="1.0" encoding="utf-8" ?>
<svg xmlns="http://www.w3.org/2000/svg" xmlns:xlink="http://www.w3.org/1999/xlink" width="54" height="54" viewBox="0 0 54 54">
	<path transform="matrix(1 0 0 1 16.1643 13.6399)" d="M26.9864 34.9269L2.58536 34.9269Q1.75695 34.9269 0.997473 34.6071Q0.264666 34.2986 -0.300138 33.7367Q-0.865814 33.174 -1.17689 32.4429Q-1.5 31.6835 -1.5 30.8546L-1.5 25.5827Q-1.5 24.7069 -1.14012 23.9089Q-0.780009 23.1103 -0.123676 22.5316L6.99791 16.239L7.99113 17.3631L6.85797 18.3459Q5.5218 16.8053 4.65664 14.6618Q3.933 12.8688 3.77953 11.3509Q3.56211 9.2158 3.91511 7.17738Q4.48082 3.91067 6.42099 1.76272Q7.90492 0.118116 10.0588 -0.706044Q12.1337 -1.5 14.7647 -1.5Q17.5349 -1.5 19.6957 -0.662506Q21.9389 0.206958 23.4575 1.94417Q25.4236 4.19182 25.9034 7.53917Q26.1852 9.5051 25.9271 11.4437Q25.6563 13.4513 24.8375 15.2689Q24.0166 17.0913 22.7608 18.4684L21.6524 17.4577L22.6431 16.3314L29.6875 22.5271Q30.3473 23.1093 30.7078 23.9077Q31.0685 24.7062 31.0685 25.5827L31.0685 30.8546Q31.0704 31.6798 30.7479 32.44Q30.4377 33.1712 29.8724 33.7346Q29.3079 34.2971 28.5753 34.6062Q27.8153 34.9269 26.9864 34.9269ZM26.9864 31.9269Q27.4363 31.9269 27.7548 31.6095Q28.0695 31.2959 28.0685 30.8546L28.0685 25.5827Q28.0685 25.0994 27.7063 24.7798L20.6618 18.5841Q20.6517 18.5752 20.6417 18.5661Q20.5873 18.5165 20.538 18.4617Q20.4886 18.407 20.4449 18.3476Q20.4012 18.2883 20.3635 18.225Q20.3258 18.1617 20.2945 18.095Q20.2632 18.0282 20.2386 17.9588Q20.214 17.8893 20.1963 17.8178Q20.1786 17.7463 20.168 17.6733Q20.1574 17.6004 20.154 17.5268Q20.1506 17.4532 20.1545 17.3796Q20.1583 17.306 20.1693 17.2331Q20.1804 17.1603 20.1985 17.0889Q20.2166 17.0174 20.2417 16.9481Q20.2667 16.8788 20.2984 16.8123Q20.3301 16.7458 20.3682 16.6827Q20.4063 16.6196 20.4503 16.5605Q20.4944 16.5015 20.5441 16.447Q21.4777 15.4232 22.1022 14.0368Q22.7416 12.6174 22.9533 11.0477Q23.1567 9.52024 22.9337 7.96485Q22.5801 5.4977 21.1988 3.91861Q19.0846 1.5 14.7647 1.5Q10.6988 1.5 8.64725 3.77362Q7.28875 5.27761 6.87112 7.68928Q6.58842 9.32175 6.76432 11.0491Q6.87482 12.1421 7.43859 13.539Q8.1163 15.2181 9.12429 16.3803Q9.17229 16.4356 9.21467 16.4954Q9.25705 16.5551 9.2934 16.6187Q9.32975 16.6823 9.35974 16.7492Q9.38972 16.816 9.41305 16.8854Q9.43638 16.9549 9.45283 17.0263Q9.46927 17.0977 9.47869 17.1703Q9.4881 17.243 9.4904 17.3162Q9.49269 17.3894 9.48783 17.4625Q9.48298 17.5356 9.47102 17.6079Q9.45907 17.6801 9.44012 17.7509Q9.42118 17.8217 9.39544 17.8903Q9.36969 17.9588 9.33738 18.0246Q9.30507 18.0903 9.26651 18.1526Q9.22795 18.2149 9.18351 18.2732Q9.13906 18.3314 9.08915 18.385Q9.03924 18.4386 8.98434 18.4871L1.86031 24.7819Q1.5 25.0996 1.5 25.5827L1.5 30.8546Q1.5 31.2959 1.81561 31.6098Q2.13437 31.9269 2.58536 31.9269L26.9864 31.9269Z" fill-rule="nonzero" fill="rgb(27, 71, 110)"/>
	<path transform="matrix(1 0 0 1 8.63867 6.95557)" d="M2.58536 34.9269Q1.75695 34.9269 0.997473 34.6071Q0.264666 34.2986 -0.300138 33.7367Q-0.865814 33.174 -1.17689 32.4429Q-1.5 31.6835 -1.5 30.8546L-1.5 25.5827Q-1.5 24.7069 -1.14012 23.9089Q-0.780009 23.1103 -0.123676 22.5316L6.99791 16.239L7.99113 17.3631L6.85797 18.3459Q5.5218 16.8053 4.65664 14.6618Q3.933 12.8688 3.77953 11.3509Q3.56211 9.2158 3.91511 7.17738Q4.48082 3.91067 6.42098 1.76272Q7.90492 0.118116 10.0588 -0.706044Q12.1337 -1.5 14.7647 -1.5Q17.5349 -1.5 19.6957 -0.662506Q21.9389 0.206958 23.4575 1.94417L21.1988 3.91861Q19.0846 1.5 14.7647 1.5Q10.6988 1.5 8.64725 3.77362Q7.28875 5.27761 6.87112 7.68928Q6.58842 9.32175 6.76432 11.0491Q6.87482 12.1421 7.43859 13.539Q8.1163 15.2181 9.12429 16.3803Q9.17229 16.4356 9.21467 16.4954Q9.25705 16.5551 9.2934 16.6187Q9.32975 16.6823 9.35974 16.7492Q9.38972 16.816 9.41305 16.8854Q9.43638 16.9549 9.45283 17.0263Q9.46927 17.0977 9.47869 17.1703Q9.4881 17.243 9.49039 17.3162Q9.49269 17.3894 9.48783 17.4625Q9.48298 17.5356 9.47102 17.6079Q9.45907 17.6801 9.44012 17.7509Q9.42118 17.8217 9.39544 17.8903Q9.36969 17.9588 9.33738 18.0246Q9.30507 18.0903 9.26651 18.1526Q9.22795 18.2149 9.18351 18.2732Q9.13906 18.3314 9.08915 18.385Q9.03924 18.4386 8.98434 18.4871L1.86031 24.7819Q1.5 25.0996 1.5 25.5827L1.5 30.8546Q1.5 31.2959 1.81561 31.6098Q2.13437 31.9269 2.58536 31.9269L2.58536 34.9269Z" fill-rule="nonzero" fill="rgb(27, 71, 110)"/>
	<path transform="matrix(1 0 0 1 29.3411 34.8517)" d="M3 7.71366L0 7.71366L0 1.28615C0 0.574526 0.536041 0 1.2 0L1.8 0C2.46396 0 3 0.574526 3 1.28615L3 7.71366Z" fill-rule="nonzero" fill="rgb(85, 193, 234)"/>
</svg>
