<?xml version="1.0" encoding="utf-8" ?>
<svg xmlns="http://www.w3.org/2000/svg" xmlns:xlink="http://www.w3.org/1999/xlink" width="14" height="14" viewBox="0 0 14 14">
	<defs>
		<clipPath id="clipPath4891872483">
			<path transform="matrix(1 0 0 1 0 0)" d="M0 0L14 0L14 14L0 14L0 0Z" fill-rule="nonzero"/>
		</clipPath>
	</defs>
	<g clip-path="url(#clipPath4891872483)">
		<path transform="matrix(1 0 0 1 1.48866 0.875)" d="M8.68931 12.2395L8.62514 12.2395C7.15631 12.1637 5.17181 10.7812 3.31681 8.53883L2.63197 7.7105C0.776974 5.47167 -0.19486 3.28183 0.0326405 1.855C0.191307 0.849333 1.68814 0 2.54214 0C2.96214 0 3.11614 0.21 3.16864 0.334833C3.65281 1.19467 4.25131 2.68917 4.25364 3.22583L4.25364 3.26317L4.24081 3.29817C4.13347 3.5805 3.89547 3.71583 3.68431 3.83483C3.40664 3.99233 3.24914 4.095 3.22931 4.39133C3.22464 4.48117 3.30164 4.89067 4.52547 6.398L5.04931 7.03033C6.27664 8.47817 6.66164 8.6345 6.75264 8.64733C7.04898 8.68817 7.18781 8.55867 7.40014 8.32533C7.56347 8.148 7.74664 7.94617 8.04997 7.90183L8.08847 7.896L8.12581 7.90417C8.66014 8.01733 10.0275 8.89933 10.8045 9.55383C10.9165 9.62733 11.1125 9.849 10.9573 10.3367C10.7146 11.1032 9.65531 12.2395 8.68931 12.2395Z" fill-rule="nonzero" fill="rgb(255, 255, 255)"/>
	</g>
</svg>
