<?xml version="1.0" encoding="utf-8" ?>
<svg xmlns="http://www.w3.org/2000/svg" xmlns:xlink="http://www.w3.org/1999/xlink" width="12" height="8.9546" viewBox="0 0 12 8.9546">
	<path transform="matrix(1 0 0 1 0 0)" d="M0 4.47742C0 4.34005 0.0502092 4.2228 0.150628 4.12566C0.251046 4.02852 0.372262 3.97996 0.514276 3.97996L10.2444 3.97996L7.00752 0.849939C6.90698 0.752818 6.85665 0.635535 6.85655 0.498089C6.85645 0.360643 6.9066 0.243291 7.00701 0.146033C7.10741 0.0487749 7.22866 9.73341e-05 7.37075 2.37207e-07C7.51284 -9.68597e-05 7.63416 0.0484148 7.73471 0.145535L11.8489 4.12522C11.9496 4.2224 12 4.3398 12 4.47742C12 4.61503 11.9496 4.73243 11.8489 4.82962L7.73471 8.8093C7.63415 8.90636 7.51284 8.95483 7.37079 8.95471C7.22873 8.95459 7.10751 8.90592 7.00713 8.80868C6.90675 8.71145 6.8566 8.59412 6.85668 8.45671C6.85675 8.3193 6.90703 8.20203 7.00752 8.1049L10.2444 4.97488L0.514275 4.97488C0.372262 4.97488 0.251046 4.92631 0.150627 4.82917C0.050209 4.73204 0 4.61479 0 4.47742Z" fill-rule="nonzero" fill="rgb(33, 33, 33)"/>
</svg>
