<?xml version="1.0" encoding="utf-8" ?>
<svg xmlns="http://www.w3.org/2000/svg" xmlns:xlink="http://www.w3.org/1999/xlink" width="24" height="24" viewBox="0 0 24 24">
	<g opacity="0.1">
		<path transform="matrix(1 0 0 1 0 0)" d="M12 0C18.6274 0 24 5.37258 24 12C24 18.6274 18.6274 24 12 24C5.37258 24 0 18.6274 0 12C0 5.37258 5.37258 0 12 0Z" fill-rule="nonzero" fill="rgb(255, 255, 255)"/>
		<path transform="matrix(1 0 0 1 0 0)" d="M24 12C24 5.37258 18.6274 0 12 0C5.37258 0 0 5.37258 0 12C0 18.6274 5.37258 24 12 24C18.6274 24 24 18.6274 24 12ZM8.88727 4.62704Q10.3697 4 12 4Q13.6303 4 15.1127 4.62704Q16.5477 5.23397 17.6569 6.34315Q18.766 7.45232 19.373 8.88727Q20 10.3697 20 12Q20 13.6303 19.373 15.1127Q18.766 16.5477 17.6569 17.6569Q16.5477 18.766 15.1127 19.373Q13.6303 20 12 20Q10.3697 20 8.88727 19.373Q7.45232 18.766 6.34315 17.6569Q5.23397 16.5477 4.62704 15.1127Q4 13.6303 4 12Q4 10.3698 4.62704 8.88727Q5.23397 7.45232 6.34315 6.34315Q7.45232 5.23397 8.88727 4.62704Z" fill-rule="evenodd" fill="rgb(0, 98, 150)"/>
	</g>
	<path transform="matrix(1 0 0 1 4 4)" d="M8 0C12.4183 0 16 3.58172 16 8C16 12.4183 12.4183 16 8 16C3.58172 16 0 12.4183 0 8C0 3.58172 3.58172 0 8 0Z" fill-rule="nonzero" fill="rgb(255, 255, 255)"/>
	<path transform="matrix(1 0 0 1 4 4)" d="M16 8C16 3.58172 12.4183 0 8 0C3.58172 0 0 3.58172 0 8C0 12.4183 3.58172 16 8 16C12.4183 16 16 12.4183 16 8ZM6.44425 4.3127Q7.18355 4 8 4Q8.81645 4 9.55575 4.3127Q10.2729 4.61601 10.8284 5.17157Q11.384 5.72714 11.6873 6.44425Q12 7.18355 12 8Q12 8.81645 11.6873 9.55575Q11.384 10.2729 10.8284 10.8284Q10.2729 11.384 9.55575 11.6873Q8.81645 12 8 12Q7.18355 12 6.44425 11.6873Q5.72714 11.384 5.17157 10.8284Q4.61601 10.2729 4.3127 9.55575Q4 8.81645 4 8Q4 7.18355 4.3127 6.44425Q4.61601 5.72714 5.17157 5.17157Q5.72714 4.61601 6.44425 4.3127Z" fill-rule="evenodd" fill="rgb(0, 98, 150)"/>
</svg>
