<?xml version="1.0" encoding="utf-8" ?>
<svg xmlns="http://www.w3.org/2000/svg" xmlns:xlink="http://www.w3.org/1999/xlink" width="20" height="20" viewBox="0 0 20 20">
	<defs>
		<clipPath id="clipPath7969886324">
			<path transform="matrix(1 0 0 1 0 0)" d="M0 0L20 0L20 20L0 20L0 0Z" fill-rule="nonzero"/>
		</clipPath>
	</defs>
	<g clip-path="url(#clipPath7969886324)">
		<g opacity="0.2">
			<path transform="matrix(1 0 0 1 0 0)" d="M13.25 20L7.5 20C6.875 20 6.125 19.875 5.5 19.625C5.25 19.5 5.125 19.5 5 19.375L4.875 19.375C4.625 19.625 4.25 20 3.75 20L3.5 20L3.125 20C1.75 20 0.875 19.125 0.75 17.5L0 9.875C0 9 0.25 8.25 0.75 7.75C1.25 7.25 1.875 7 2.5 7L4.25 7C5.375 7 6.625 5.75 6.875 5.375C7.125 4.875 7.375 4.125 7.375 2.5C7.25 0.25 8.75 0 9.5 0C10 0 10.875 0.125 11.625 1.375C12.5 2.75 12.75 5.125 12.25 7.125L15.5 7.125C17.375 7.125 18.75 8.125 18.75 9.625C18.75 10.125 18.625 10.75 18.375 11.125C18.5 11.375 18.75 11.875 18.75 12.5C18.75 13.25 18.375 13.875 17.875 14.25C18 14.5 18 14.75 18 15C18 15.75 17.5 16.5 16.75 16.875L16.75 17.375C16.75 18.25 16.375 20 13.25 20Z" fill-rule="nonzero" fill="rgb(85, 193, 234)" fill-opacity="0.3"/>
			<path transform="matrix(1 0 0 1 0 0)" d="M5 19.375C5.125 19.5 5.25 19.5 5.5 19.625C6.125 19.875 6.875 20 7.5 20L13.25 20C16.375 20 16.75 18.25 16.75 17.375L16.75 16.875C17.5 16.5 18 15.75 18 15C18 14.75 18 14.5 17.875 14.25C18.375 13.875 18.75 13.25 18.75 12.5C18.75 11.875 18.5 11.375 18.375 11.125C18.625 10.75 18.75 10.125 18.75 9.625C18.75 8.125 17.375 7.125 15.5 7.125L12.25 7.125C12.3711 6.64049 12.4482 6.13397 12.4831 5.625C12.5922 4.03298 12.288 2.4169 11.625 1.375C10.875 0.125 10 0 9.5 0C8.75 0 7.25 0.25 7.375 2.5C7.375 4.125 7.125 4.875 6.875 5.375C6.625 5.75 5.375 7 4.25 7L2.5 7C1.875 7 1.25 7.25 0.75 7.75C0.25 8.25 0 9 0 9.875L0.75 17.5C0.875 19.125 1.75 20 3.125 20L3.75 20C4.25 20 4.625 19.625 4.875 19.375L5 19.375ZM1.50063 9.80788Q1.51402 9.1073 1.81066 8.81066Q2.12132 8.5 2.5 8.5L4.25 8.5Q5.48074 8.5 6.7844 7.53277Q7.20615 7.21985 7.57824 6.84777Q7.93131 6.4947 8.12308 6.20705Q8.17488 6.12935 8.21664 6.04582Q8.53216 5.41478 8.68764 4.66328Q8.875 3.75772 8.875 2.5Q8.875 2.45837 8.87269 2.4168Q8.84706 1.95551 8.9432 1.71309Q8.9753 1.63213 9.01595 1.60129Q9.14947 1.5 9.5 1.5Q9.67715 1.5 9.79793 1.56039Q10.068 1.6954 10.3388 2.14674Q10.3489 2.16366 10.3595 2.18031Q10.8257 2.91289 10.9617 4.17623Q11.106 5.51615 10.7948 6.7612Q10.759 6.90452 10.7518 7.05208Q10.7446 7.19965 10.7663 7.34578Q10.7881 7.4919 10.8379 7.63098Q10.8878 7.77006 10.9638 7.89674Q11.0398 8.02343 11.139 8.13285Q11.2383 8.24227 11.357 8.33022Q11.4757 8.41817 11.6093 8.48128Q11.7429 8.54438 11.8862 8.58021Q12.0653 8.625 12.25 8.625L15.5 8.625Q16.416 8.625 16.923 9.00861Q17.25 9.2561 17.25 9.625Q17.25 9.84935 17.1961 10.0783Q17.1558 10.2496 17.1269 10.2929Q17.0722 10.3751 17.0286 10.4637Q16.9851 10.5523 16.9536 10.6459Q16.922 10.7395 16.903 10.8364Q16.884 10.9332 16.8779 11.0318Q16.8718 11.1303 16.8786 11.2288Q16.8854 11.3273 16.9051 11.4241Q16.9248 11.5208 16.957 11.6142Q16.9892 11.7075 17.0334 11.7958Q17.25 12.2291 17.25 12.5Q17.25 12.8438 16.975 13.05Q16.8746 13.1253 16.7881 13.2162Q16.7017 13.3071 16.6315 13.4112Q16.5613 13.5152 16.5094 13.6294Q16.4575 13.7437 16.4253 13.8649Q16.3931 13.9862 16.3814 14.1111Q16.3698 14.2361 16.3791 14.3612Q16.3884 14.4864 16.4184 14.6082Q16.4484 14.7301 16.4982 14.8452Q16.5 14.8944 16.5 15Q16.5 15.1083 16.4082 15.2461Q16.2854 15.4303 16.0792 15.5334Q15.9862 15.5799 15.9005 15.6387Q15.8148 15.6976 15.7381 15.7677Q15.6613 15.8379 15.595 15.9179Q15.5287 15.998 15.474 16.0864Q15.4194 16.1748 15.3774 16.27Q15.3355 16.3651 15.3071 16.4651Q15.2787 16.5651 15.2643 16.6681Q15.25 16.771 15.25 16.875L15.25 17.375Q15.25 17.7941 15.049 18.0211Q14.8967 18.193 14.5892 18.3082Q14.0769 18.5 13.25 18.5L7.5 18.5Q6.75152 18.5 6.1007 18.2494Q5.99061 18.1977 5.85987 18.1459Q5.67083 18.0137 5.45077 17.9443Q5.23072 17.875 5 17.875L4.875 17.875Q4.72726 17.875 4.58236 17.9038Q4.43747 17.9326 4.30097 17.9892Q4.16448 18.0457 4.04164 18.1278Q3.91881 18.2099 3.81434 18.3143Q3.68617 18.4425 3.61741 18.5L3.125 18.5Q2.72361 18.5 2.54923 18.3189Q2.2973 18.0573 2.24558 17.385L1.50063 9.80788Z" fill-rule="evenodd" fill="rgb(27, 71, 110)"/>
		</g>
	</g>
</svg>
