<?xml version="1.0" encoding="utf-8" ?>
<svg xmlns="http://www.w3.org/2000/svg" xmlns:xlink="http://www.w3.org/1999/xlink" width="54" height="54" viewBox="0 0 54 54">
	<path transform="matrix(1 0 0 1 7.68945 25.8487)" d="M18.7564 2.98162C23.3641 6.13554 25.2614 7.68786 25.8527 9.16626C32.678 6.94866 35.9305 6.20946 37.2364 6.80082C39.8482 8.00818 40.341 12.5419 37.6306 14.932C35.413 16.9032 24.7932 21.9298 22.6002 22.1515C21.3929 22.2747 19.2492 21.6587 15.775 20.4514C15.43 20.3282 15.085 20.205 14.7155 20.0571C13.927 19.7615 13.1631 19.4904 12.3747 19.1947L10.502 18.4802C8.92505 17.8888 6.04217 17.8888 1.92729 18.5541C1.04025 18.6773 0.202491 18.0613 0.0792905 17.1496C-0.0439094 16.2872 0.54745 15.4741 1.40985 15.3016C6.04217 14.5378 9.44249 14.5378 11.6847 15.3755C11.8079 15.4248 13.1138 15.9176 13.5574 16.0901C14.6662 16.509 15.775 16.9279 16.8838 17.3221C19.7174 18.3077 21.8118 18.8991 22.3046 18.8498C23.7583 18.7019 33.7375 13.9711 35.4623 12.4434C36.3494 11.6549 36.2755 10.2258 35.9551 9.83154C35.8319 9.83154 35.6841 9.85618 35.5609 9.88082C35.0188 9.95474 34.255 10.1272 33.294 10.3736C31.446 10.8418 28.8834 11.6303 25.6063 12.6898C25.0396 13.7 23.9554 14.4392 22.3785 14.5378C20.0623 14.6856 15.9967 13.3797 14.3705 12.1477C14.0124 11.8741 13.8021 11.5141 13.7397 11.0677C13.6773 10.6214 13.7808 10.2175 14.0502 9.85618C14.5922 9.14162 15.6271 8.99378 16.3417 9.53586C17.3766 10.2997 20.6783 11.3592 22.1567 11.2607C22.4031 11.236 22.5756 11.1867 22.6742 11.0882C22.6842 11.0006 22.7038 10.9153 22.7329 10.8321C22.762 10.749 22.7999 10.6701 22.8466 10.5954C22.8466 10.4968 22.822 10.3983 22.822 10.2751C22.822 10.3243 22.7974 10.2751 22.6988 10.1272C22.4031 9.78226 22.0828 9.46194 21.7378 9.1909C20.7769 8.35314 19.2738 7.24434 16.9577 5.66738C13.5327 3.4005 11.7586 3.00626 10.6498 3.42514C10.1817 3.59762 7.2988 5.51954 2.59256 8.8213C2.2213 9.08131 1.81232 9.17289 1.36562 9.09604C0.918926 9.01919 0.564066 8.7962 0.301043 8.42706C0.0410291 8.0558 -0.0505523 7.64682 0.0262987 7.20012C0.10315 6.75342 0.326144 6.39856 0.695283 6.13554C5.86968 2.51346 8.60472 0.690098 9.49176 0.345138C11.734 -0.492621 14.5922 0.123379 18.7564 2.98162Z" fill-rule="nonzero" fill="rgb(27, 71, 110)"/>
	<path transform="matrix(1 0 0 1 30.7052 13.96)" d="M9.56327 0.455839C10.0314 -0.0862404 10.8692 -0.13552 11.4113 0.332639C11.9041 0.77616 12.0026 1.51536 11.633 2.05744L11.5345 2.18064L8.83042 5.26066L10.5737 5.26066C10.9345 5.24002 11.2497 5.35 11.5193 5.59058C11.7889 5.83116 11.9339 6.13184 11.9543 6.49261C11.9748 6.85339 11.8646 7.16851 11.6239 7.43798C11.3831 7.70745 11.0824 7.85229 10.7216 7.8725L7.2715 7.8725L7.2715 10.509L9.90845 10.509C10.2691 10.4886 10.5841 10.5986 10.8535 10.8392Q11.2577 11.2001 11.2883 11.741C11.3087 12.1016 11.1986 12.4166 10.9581 12.6861C10.7175 12.9555 10.4169 13.1004 10.0563 13.1208L7.2715 13.1208L7.2715 14.4514C7.29191 14.812 7.18183 15.127 6.94127 15.3965Q6.58043 15.8006 6.0395 15.8312Q5.49857 15.8618 5.09442 15.501C4.82499 15.2604 4.68007 14.9598 4.65966 14.5992L4.65966 13.1208L2.02365 13.1208C1.66303 13.1412 1.34801 13.0312 1.07858 12.7906Q0.674433 12.4297 0.643815 11.8888Q0.613196 11.3479 0.974039 10.9437C1.2146 10.6743 1.51519 10.5294 1.87581 10.509L4.65966 10.509L4.65966 7.8725L1.38301 7.8725Q0.841875 7.90345 0.43745 7.54258Q0.0330289 7.1817 0.00239565 6.64054Q-0.0282347 6.09939 0.332882 5.69518C0.573626 5.4257 0.87439 5.28086 1.23517 5.26066L3.05196 5.26066L0.347909 2.18064C-0.144891 1.63856 -0.0956104 0.8008 0.446468 0.33264C0.939268 -0.11088 1.70311 -0.11088 2.19591 0.33264L2.31911 0.45584L5.91655 4.57072L9.56327 0.455839Z" fill-rule="evenodd" fill="rgb(85, 193, 234)"/>
</svg>
