<?xml version="1.0" encoding="utf-8" ?>
<svg xmlns="http://www.w3.org/2000/svg" xmlns:xlink="http://www.w3.org/1999/xlink" width="24" height="24" viewBox="0 0 24 24">
	<path transform="matrix(1 0 0 1 0 0)" d="M2 0C0.895431 0 0 0.895431 0 2L0 22C0 23.1046 0.89543 24 2 24L22 24C23.1046 24 24 23.1046 24 22L24 2C24 0.895431 23.1046 0 22 0L2 0Z" fill-rule="nonzero" fill="rgb(48, 192, 28)"/>
	<path transform="matrix(1 0 0 1 3.11084 5.12939)" d="M11.9621 4.31858C12.1758 4.31858 12.3894 4.31858 12.603 4.38938C12.0333 1.84071 9.32763 0 6.26589 0C2.77693 0 0 2.33628 0 5.30973C0 7.00885 0.925642 8.42478 2.49211 9.55752L1.85128 11.469L4.05859 10.3363C4.84182 10.4779 5.48265 10.6195 6.26589 10.6195L6.83551 10.6195C6.69311 10.1947 6.6219 9.76991 6.6219 9.27434C6.6219 6.51328 8.97161 4.31858 11.9621 4.31858ZM8.61559 2.61947C9.11402 2.61947 9.39883 2.90266 9.39883 3.39823C9.39883 3.89381 9.11402 4.17699 8.61559 4.17699C8.11717 4.17699 7.68995 3.89381 7.68995 3.39823C7.61875 2.90266 8.11717 2.61947 8.61559 2.61947ZM4.20099 4.17699C3.70257 4.17699 3.27535 3.89381 3.27535 3.39823C3.27535 2.90266 3.77377 2.61947 4.20099 2.61947C4.62821 2.61947 4.98423 2.90266 4.98423 3.39823C4.98423 3.89381 4.62821 4.17699 4.20099 4.17699Z" fill-rule="nonzero" fill="rgb(255, 255, 255)"/>
	<path transform="matrix(1 0 0 1 10.1597 9.80225)" d="M10.6805 4.53097C10.6805 2.0531 8.18837 0 5.34024 0C2.34971 0 0 2.0531 0 4.53097C0 7.00885 2.34971 9.06195 5.34024 9.06195C5.98107 9.06195 6.6219 8.92035 7.26273 8.77876L8.97161 9.69912L8.47319 8.14159C9.75485 7.22124 10.6805 5.9469 10.6805 4.53097ZM3.56016 3.75221C3.27535 3.75221 2.91933 3.46903 2.91933 3.11504C2.91933 2.83186 3.20415 2.47788 3.56016 2.47788C4.05859 2.47788 4.3434 2.76106 4.3434 3.11504C4.3434 3.46903 4.05859 3.75221 3.56016 3.75221ZM7.04912 3.75221C6.76431 3.75221 6.40829 3.46903 6.40829 3.11504C6.40829 2.83186 6.6931 2.47788 7.04912 2.47788C7.54754 2.47788 7.83236 2.76106 7.83236 3.11504C7.83236 3.46903 7.54754 3.75221 7.04912 3.75221Z" fill-rule="nonzero" fill="rgb(255, 255, 255)"/>
</svg>
