<?xml version="1.0" encoding="utf-8" ?>
<svg xmlns="http://www.w3.org/2000/svg" xmlns:xlink="http://www.w3.org/1999/xlink" width="14.0156" height="14" viewBox="0 0 14.0156 14">
	<path transform="matrix(1 0 0 1 0 1.50927)" d="M9.44639 3.41034C9.61507 3.41034 9.78376 3.41034 9.95244 3.46625C9.50261 1.45359 7.36593 0 4.94811 0C2.19291 0 0 1.84494 0 4.19304C0 5.53482 0.73097 6.65296 1.968 7.54748L1.46194 9.05698L3.20502 8.16246C3.82354 8.27427 4.32959 8.38609 4.94811 8.38609L5.39794 8.38609C5.28548 8.05064 5.22925 7.7152 5.22925 7.32385C5.22925 5.14347 7.08479 3.41034 9.44639 3.41034ZM6.80365 2.06857C7.19725 2.06857 7.42216 2.2922 7.42216 2.68355C7.42216 3.0749 7.19725 3.29853 6.80365 3.29853C6.41005 3.29853 6.07268 3.0749 6.07268 2.68355C6.01645 2.2922 6.41005 2.06857 6.80365 2.06857ZM3.31748 3.29853C2.92388 3.29853 2.58651 3.0749 2.58651 2.68355C2.58651 2.2922 2.98011 2.06857 3.31748 2.06857C3.65485 2.06857 3.93599 2.2922 3.93599 2.68355C3.93599 3.0749 3.65485 3.29853 3.31748 3.29853Z" fill-rule="nonzero" fill="rgb(255, 255, 255)"/>
	<path transform="matrix(1 0 0 1 5.56573 5.19937)" d="M8.43427 3.57806C8.43427 1.62131 6.46628 0 4.21714 0C1.85554 0 0 1.62131 0 3.57806C0 5.53482 1.85554 7.15613 4.21714 7.15613C4.72319 7.15613 5.22925 7.04431 5.73531 6.9325L7.08479 7.65929L6.69119 6.42933C7.7033 5.70254 8.43427 4.69621 8.43427 3.57806ZM2.81142 2.96308C2.58651 2.96308 2.30537 2.73946 2.30537 2.45992C2.30537 2.23629 2.53028 1.95675 2.81142 1.95675C3.20502 1.95675 3.42994 2.18038 3.42994 2.45992C3.42994 2.73946 3.20502 2.96308 2.81142 2.96308ZM5.56662 2.96308C5.34171 2.96308 5.06056 2.73946 5.06056 2.45992C5.06056 2.23629 5.28548 1.95675 5.56662 1.95675C5.96022 1.95675 6.18513 2.18038 6.18513 2.45992C6.18513 2.73946 5.96022 2.96308 5.56662 2.96308Z" fill-rule="nonzero" fill="rgb(255, 255, 255)"/>
</svg>
