<?xml version="1.0" encoding="utf-8" ?>
<svg xmlns="http://www.w3.org/2000/svg" xmlns:xlink="http://www.w3.org/1999/xlink" width="24" height="24" viewBox="0 0 24 24">
	<defs>
		<clipPath id="clipPath7340579431">
			<path transform="matrix(1 0 0 1 0 0)" d="M0 0L24 0L24 24L0 24L0 0Z" fill-rule="nonzero"/>
		</clipPath>
	</defs>
	<g clip-path="url(#clipPath7340579431)">
		<path transform="matrix(1 0 0 1 0.0537109 0.0532227)" d="M2 0C0.895431 0 0 0.895431 0 2L0 22C0 23.1046 0.89543 24 2 24L22 24C23.1046 24 24 23.1046 24 22L24 2C24 0.895431 23.1046 0 22 0L2 0Z" fill-rule="nonzero" fill="rgb(251, 0, 51)"/>
		<path transform="matrix(1 0 0 1 62.5073 0.106445)" d="M23.8933 19.5533L23.8933 4.34091C23.8933 1.95328 21.9401 0 19.5524 0L4.34091 0C1.95328 0 0 1.95328 0 4.34091L0 19.5533C0 21.917 1.91488 23.8558 4.27093 23.8933L19.6224 23.8933C21.9776 23.8558 23.8933 21.9179 23.8933 19.5533Z" fill-rule="nonzero" fill="rgb(255, 36, 66)"/>
		<path transform="matrix(1 0 0 1 65.9209 8.64014)" d="M13.5609 0L14.9049 0L14.9049 0.48128C14.9049 0.51968 14.9237 0.5376 14.9604 0.536747C15.7574 0.512853 16.5604 0.538453 16.9717 1.35595C17.2166 1.84064 17.1663 2.57792 17.1526 3.15648C17.1517 3.19061 17.168 3.20939 17.2004 3.2128C17.2943 3.22133 17.3856 3.22987 17.4743 3.24096C19.0589 3.43125 18.7458 4.92544 18.7509 6.09963C18.7535 6.50923 18.7074 6.80875 18.6144 6.99989C18.4181 7.39584 18.0665 7.62283 17.5596 7.67915L16.5715 7.67915L16.0663 6.50667C16.0637 6.50085 16.0627 6.49477 16.0631 6.48843C16.0636 6.48209 16.0655 6.47622 16.0689 6.47083C16.0722 6.46556 16.0766 6.46141 16.0821 6.45838C16.0875 6.45535 16.0934 6.45381 16.0996 6.45376L17.1714 6.45291C17.2311 6.45291 17.2874 6.42731 17.3284 6.38293C17.3491 6.36056 17.3649 6.33514 17.3758 6.30668C17.3868 6.27821 17.392 6.24873 17.3915 6.21824C17.3864 5.85984 17.3839 5.50229 17.3856 5.14475C17.3856 4.82304 17.2337 4.65835 16.9273 4.64982C16.5809 4.64128 15.9247 4.64128 14.9578 4.65152C14.9237 4.65152 14.9066 4.6703 14.9066 4.70699L14.9015 7.67915L13.5592 7.67915L13.5549 4.69419C13.5554 4.67941 13.5506 4.66667 13.5404 4.65597C13.5302 4.64527 13.5177 4.63981 13.5029 4.63958L12.2485 4.63958C12.2323 4.63911 12.2186 4.63308 12.2074 4.62149C12.1961 4.60989 12.1905 4.59601 12.1905 4.57984L12.1922 3.28107C12.1922 3.23755 12.2127 3.21536 12.2536 3.21536L13.4935 3.21792C13.5016 3.21786 13.5094 3.2162 13.5168 3.21294C13.5242 3.20967 13.5307 3.20508 13.5362 3.19915C13.5417 3.1931 13.546 3.18624 13.5489 3.17858C13.5519 3.17092 13.5533 3.16298 13.5532 3.15477L13.5532 2.03179C13.5537 2.01145 13.547 1.99388 13.533 1.97908C13.519 1.96428 13.5019 1.95654 13.4816 1.95584L12.7161 1.95925C12.676 1.95925 12.6564 1.93792 12.6564 1.89611L12.6538 0.590508C12.6538 0.552108 12.6709 0.533335 12.7093 0.533335L13.502 0.533335C13.5362 0.533335 13.5532 0.516268 13.5532 0.479575L13.5618 1.43051e-06L13.5609 0ZM14.9527 3.21963L15.7864 3.21792C15.8001 3.21792 15.8129 3.21195 15.8223 3.20171C15.827 3.19662 15.8306 3.19084 15.8332 3.18434C15.8357 3.17785 15.8369 3.17112 15.8368 3.16416L15.8325 2.12053C15.8325 2.03861 15.7728 1.97205 15.7002 1.97205L15.0312 1.97376C15.0131 1.97403 14.9959 1.97804 14.9795 1.98578C14.9631 1.99352 14.9491 2.00431 14.9373 2.01813C14.9246 2.03296 14.915 2.04956 14.9084 2.06794C14.9017 2.08632 14.8986 2.10527 14.8989 2.1248L14.9032 3.16843C14.9032 3.19744 14.9263 3.21963 14.9527 3.21963ZM6.32892 3.31349C6.00465 3.31947 5.41841 3.40992 5.29042 2.99264C5.21276 2.74347 5.38855 2.39616 5.49521 2.15296C5.799 1.46091 6.09682 0.766294 6.38951 0.0691209C6.40145 0.0409606 6.42194 0.0264545 6.45095 0.0264545L7.73351 0.0264545C7.7446 0.0264545 7.75399 0.0324276 7.75911 0.0418146C7.7621 0.0463698 7.76389 0.0513539 7.76449 0.056767C7.76509 0.06218 7.76444 0.067436 7.76252 0.0725348L7.02012 1.80736C7.00306 1.84747 7.00732 1.8927 7.02951 1.93024C7.04042 1.94811 7.05498 1.9622 7.07319 1.97252C7.0914 1.98284 7.11098 1.98809 7.13191 1.98827L8.231 1.98827C8.24466 1.98827 8.2566 1.99509 8.26428 2.00619C8.27111 2.01814 8.27282 2.03179 8.26684 2.04459C7.9494 2.78443 7.63282 3.51915 7.31708 4.24875C7.28551 4.32128 7.27186 4.37504 7.27698 4.40917C7.28807 4.48342 7.32988 4.52096 7.40156 4.52181L8.09703 4.52608C8.13714 4.52694 8.14994 4.54656 8.13372 4.58582L7.68402 5.64395C7.6776 5.66191 7.66654 5.67631 7.65084 5.68715C7.63514 5.69798 7.61775 5.70321 7.59868 5.70283C6.89212 5.71136 6.39804 5.71136 6.11644 5.69856C5.65052 5.67723 5.53617 5.26934 5.71708 4.84864L6.35623 3.35702C6.35812 3.35225 6.35884 3.34731 6.35839 3.34221C6.35794 3.3371 6.35637 3.33236 6.35367 3.328C6.35103 3.32344 6.34743 3.31986 6.34284 3.31726C6.33826 3.31467 6.33334 3.31341 6.32807 3.31349L6.32892 3.31349ZM0.999855 7.67915L0.496388 7.67915L0.00316143 6.52117C0.000670671 6.51549 -0.00034833 6.50955 0.000104427 6.50336C0.000557184 6.49718 0.00242949 6.49145 0.00572133 6.48619C0.00872064 6.48099 0.0128062 6.47687 0.017978 6.47383C0.0231495 6.47079 0.028735 6.46922 0.0347346 6.46912L0.731055 6.46742C0.776067 6.46648 0.814153 6.44977 0.845315 6.41728C0.876476 6.38478 0.891581 6.34603 0.890628 6.30102L0.909401 0.159576C0.908923 0.142915 0.914451 0.128567 0.925983 0.116533C0.937516 0.1045 0.951615 0.0983672 0.968281 0.098136L2.16636 0.098136C2.22268 0.098136 2.25084 0.128003 2.25169 0.186883C2.25681 2.26646 2.25681 4.31019 2.25169 6.31894C2.24828 7.14326 1.86599 7.70646 0.999855 7.67915Z" fill-rule="nonzero" fill="rgb(255, 255, 255)"/>
		<path transform="matrix(1 0 0 1 64.2139 9.15576)" d="M13.9452 7.16331L9.40032 7.16331L10.0096 5.78944C10.0158 5.77312 10.0263 5.76017 10.0409 5.75059C10.0555 5.74101 10.0715 5.73661 10.089 5.73739L11.2017 5.7391C11.241 5.7391 11.2614 5.71947 11.2614 5.67936L11.2614 1.51083C11.2614 1.47499 11.2444 1.45707 11.2102 1.45707L10.4721 1.45621C10.4388 1.45621 10.4124 1.4272 10.4124 1.39221L10.4124 0.0550411C10.4124 0.0345612 10.4277 0.0174944 10.4474 0.0174944L13.4562 0.0174944C13.4938 0.0174944 13.5117 0.0371211 13.5117 0.0763743L13.5134 1.39904C13.5134 1.43744 13.4946 1.45707 13.4571 1.45707L12.713 1.45707C12.6788 1.45707 12.6618 1.47499 12.6618 1.51083L12.6618 5.6768C12.6618 5.71691 12.6814 5.73653 12.7189 5.73653L13.8982 5.7391C13.9307 5.7391 13.9469 5.75616 13.9469 5.79029L13.9452 7.16416L13.9452 7.16331ZM19.3579 0.1472C20.2863 -0.491093 20.9399 1.13621 19.9228 1.41525C19.7572 1.46133 19.4935 1.46389 19.1326 1.42379C19.1002 1.42037 19.0848 1.40245 19.0848 1.36832C19.0797 0.98432 19.0037 0.3904 19.3579 0.148054L19.3579 0.1472ZM6.54165 4.93184L5.92725 6.36288C5.87179 6.49088 5.8112 6.49344 5.74379 6.37312C5.29152 5.55563 5.13792 4.88832 5.04917 3.872C4.98091 3.08267 4.92203 2.29333 4.87083 1.50229C4.86912 1.46645 4.88533 1.44853 4.91947 1.44853L6.16448 1.44939C6.19947 1.44939 6.21909 1.46816 6.22165 1.504C6.28565 2.42389 6.35307 3.34122 6.42304 4.256C6.44096 4.49152 6.48107 4.68693 6.54251 4.84224C6.54867 4.85657 6.55168 4.87153 6.55153 4.88713C6.55138 4.90273 6.54809 4.91763 6.54165 4.93184ZM0 4.87893L0 4.82005C0.0292498 4.78033 0.0532586 4.73766 0.0720264 4.69204C0.0907943 4.64642 0.103763 4.59921 0.110933 4.5504C0.203093 3.53493 0.278187 2.52032 0.337067 1.50485C0.339627 1.47328 0.354987 1.45707 0.384853 1.45707L1.65632 1.45707C1.66741 1.45707 1.67851 1.46219 1.68704 1.47157C1.69472 1.48011 1.69899 1.49205 1.69813 1.504C1.66461 1.97179 1.62915 2.43943 1.59175 2.90692C1.55434 3.37441 1.51499 3.84174 1.47371 4.30891C1.41397 4.98731 1.19723 5.89526 0.744106 6.44565C0.715093 6.48064 0.690346 6.47723 0.671573 6.43456L0 4.87893ZM8.67157 7.16331L6.83008 7.16331L6.59541 7.07029C6.56213 7.05749 6.55275 7.03445 6.56811 7.00118L7.14581 5.67851C7.16288 5.64011 7.19019 5.6256 7.22944 5.63584C7.86091 5.80736 8.59221 5.73654 9.23819 5.7391C9.27829 5.73995 9.28939 5.75958 9.27232 5.79712L8.67157 7.16246L8.67157 7.16331Z" fill-rule="nonzero" fill="rgb(255, 255, 255)"/>
		<path transform="matrix(1 0 0 1 3.46729 8.58691)" d="M13.5609 0L14.9049 0L14.9049 0.48128C14.9049 0.51968 14.9237 0.5376 14.9604 0.536747C15.7574 0.512853 16.5604 0.538453 16.9717 1.35595C17.2166 1.84064 17.1663 2.57792 17.1526 3.15648C17.1517 3.19061 17.168 3.20939 17.2004 3.2128C17.2943 3.22133 17.3856 3.22987 17.4743 3.24096C19.0589 3.43125 18.7458 4.92544 18.7509 6.09963C18.7535 6.50923 18.7074 6.80875 18.6144 6.99989C18.4181 7.39584 18.0665 7.62283 17.5596 7.67915L16.5715 7.67915L16.0663 6.50667C16.0637 6.50085 16.0627 6.49477 16.0631 6.48843C16.0636 6.48209 16.0655 6.47622 16.0689 6.47083C16.0722 6.46556 16.0766 6.46141 16.0821 6.45838C16.0875 6.45535 16.0934 6.45381 16.0996 6.45376L17.1714 6.45291C17.2311 6.45291 17.2874 6.42731 17.3284 6.38293C17.3491 6.36056 17.3649 6.33514 17.3758 6.30668C17.3868 6.27821 17.392 6.24873 17.3915 6.21824C17.3864 5.85984 17.3839 5.50229 17.3856 5.14475C17.3856 4.82304 17.2337 4.65835 16.9273 4.64982C16.5809 4.64128 15.9247 4.64128 14.9578 4.65152C14.9237 4.65152 14.9066 4.6703 14.9066 4.70699L14.9015 7.67915L13.5592 7.67915L13.5549 4.69419C13.5554 4.67941 13.5506 4.66667 13.5404 4.65597C13.5302 4.64527 13.5177 4.63981 13.5029 4.63958L12.2485 4.63958C12.2323 4.63911 12.2186 4.63308 12.2074 4.62149C12.1961 4.60989 12.1905 4.59601 12.1905 4.57984L12.1922 3.28107C12.1922 3.23755 12.2127 3.21536 12.2536 3.21536L13.4935 3.21792C13.5016 3.21786 13.5094 3.2162 13.5168 3.21294C13.5242 3.20967 13.5307 3.20508 13.5362 3.19915C13.5417 3.1931 13.546 3.18624 13.5489 3.17858C13.5519 3.17092 13.5533 3.16298 13.5532 3.15477L13.5532 2.03179C13.5537 2.01145 13.547 1.99388 13.533 1.97908C13.519 1.96428 13.5019 1.95654 13.4816 1.95584L12.7161 1.95925C12.676 1.95925 12.6564 1.93792 12.6564 1.89611L12.6538 0.590508C12.6538 0.552108 12.6709 0.533335 12.7093 0.533335L13.502 0.533335C13.5362 0.533335 13.5532 0.516268 13.5532 0.479575L13.5618 1.43051e-06L13.5609 0ZM14.9527 3.21963L15.7864 3.21792C15.8001 3.21792 15.8129 3.21195 15.8223 3.20171C15.827 3.19662 15.8306 3.19084 15.8332 3.18434C15.8357 3.17785 15.8369 3.17112 15.8368 3.16416L15.8325 2.12053C15.8325 2.03861 15.7728 1.97205 15.7002 1.97205L15.0312 1.97376C15.0131 1.97403 14.9959 1.97804 14.9795 1.98578C14.9631 1.99352 14.9491 2.00431 14.9373 2.01813C14.9246 2.03296 14.915 2.04956 14.9084 2.06794C14.9017 2.08632 14.8986 2.10527 14.8989 2.1248L14.9032 3.16843C14.9032 3.19744 14.9263 3.21963 14.9527 3.21963ZM6.32892 3.31349C6.00465 3.31947 5.41841 3.40992 5.29042 2.99264C5.21276 2.74347 5.38855 2.39616 5.49521 2.15296C5.799 1.46091 6.09682 0.766294 6.38951 0.0691209C6.40145 0.0409606 6.42194 0.0264545 6.45095 0.0264545L7.73351 0.0264545C7.7446 0.0264545 7.75399 0.0324276 7.75911 0.0418146C7.7621 0.0463698 7.76389 0.0513539 7.76449 0.056767C7.76509 0.06218 7.76444 0.067436 7.76252 0.0725348L7.02012 1.80736C7.00306 1.84747 7.00732 1.8927 7.02951 1.93024C7.04042 1.94811 7.05498 1.9622 7.07319 1.97252C7.0914 1.98284 7.11098 1.98809 7.13191 1.98827L8.231 1.98827C8.24466 1.98827 8.2566 1.99509 8.26428 2.00619C8.27111 2.01814 8.27282 2.03179 8.26684 2.04459C7.9494 2.78443 7.63282 3.51915 7.31708 4.24875C7.28551 4.32128 7.27186 4.37504 7.27698 4.40917C7.28807 4.48342 7.32988 4.52096 7.40156 4.52181L8.09703 4.52608C8.13714 4.52694 8.14994 4.54656 8.13372 4.58582L7.68402 5.64395C7.6776 5.66191 7.66654 5.67631 7.65084 5.68715C7.63514 5.69798 7.61775 5.70321 7.59868 5.70283C6.89212 5.71136 6.39804 5.71136 6.11644 5.69856C5.65052 5.67723 5.53617 5.26934 5.71708 4.84864L6.35623 3.35702C6.35812 3.35225 6.35884 3.34731 6.35839 3.34221C6.35794 3.3371 6.35637 3.33236 6.35367 3.328C6.35103 3.32344 6.34743 3.31986 6.34284 3.31726C6.33826 3.31467 6.33334 3.31341 6.32807 3.31349L6.32892 3.31349ZM0.999855 7.67915L0.496388 7.67915L0.00316143 6.52117C0.000670671 6.51549 -0.00034833 6.50955 0.000104427 6.50336C0.000557184 6.49718 0.00242949 6.49145 0.00572133 6.48619C0.00872064 6.48099 0.0128062 6.47687 0.017978 6.47383C0.0231495 6.47079 0.028735 6.46922 0.0347346 6.46912L0.731055 6.46742C0.776067 6.46648 0.814153 6.44977 0.845315 6.41728C0.876476 6.38478 0.891581 6.34603 0.890628 6.30102L0.909401 0.159576C0.908923 0.142915 0.914451 0.128567 0.925983 0.116533C0.937516 0.1045 0.951615 0.0983672 0.968281 0.098136L2.16636 0.098136C2.22268 0.098136 2.25084 0.128003 2.25169 0.186883C2.25681 2.26646 2.25681 4.31019 2.25169 6.31894C2.24828 7.14326 1.86599 7.70646 0.999855 7.67915Z" fill-rule="nonzero" fill="rgb(255, 255, 255)"/>
		<path transform="matrix(1 0 0 1 1.76025 9.10254)" d="M13.9452 7.16331L9.40032 7.16331L10.0096 5.78944C10.0158 5.77312 10.0263 5.76017 10.0409 5.75059C10.0555 5.74101 10.0715 5.73661 10.089 5.73739L11.2017 5.7391C11.241 5.7391 11.2614 5.71947 11.2614 5.67936L11.2614 1.51083C11.2614 1.47499 11.2444 1.45707 11.2102 1.45707L10.4721 1.45621C10.4388 1.45621 10.4124 1.4272 10.4124 1.39221L10.4124 0.0550411C10.4124 0.0345612 10.4277 0.0174944 10.4474 0.0174944L13.4562 0.0174944C13.4938 0.0174944 13.5117 0.0371211 13.5117 0.0763743L13.5134 1.39904C13.5134 1.43744 13.4946 1.45707 13.4571 1.45707L12.713 1.45707C12.6788 1.45707 12.6618 1.47499 12.6618 1.51083L12.6618 5.6768C12.6618 5.71691 12.6814 5.73653 12.7189 5.73653L13.8982 5.7391C13.9307 5.7391 13.9469 5.75616 13.9469 5.79029L13.9452 7.16416L13.9452 7.16331ZM19.3579 0.1472C20.2863 -0.491093 20.9399 1.13621 19.9228 1.41525C19.7572 1.46133 19.4935 1.46389 19.1326 1.42379C19.1002 1.42037 19.0848 1.40245 19.0848 1.36832C19.0797 0.98432 19.0037 0.3904 19.3579 0.148054L19.3579 0.1472ZM6.54165 4.93184L5.92725 6.36288C5.87179 6.49088 5.8112 6.49344 5.74379 6.37312C5.29152 5.55563 5.13792 4.88832 5.04917 3.872C4.98091 3.08267 4.92203 2.29333 4.87083 1.50229C4.86912 1.46645 4.88533 1.44853 4.91947 1.44853L6.16448 1.44939C6.19947 1.44939 6.21909 1.46816 6.22165 1.504C6.28565 2.42389 6.35307 3.34122 6.42304 4.256C6.44096 4.49152 6.48107 4.68693 6.54251 4.84224C6.54867 4.85657 6.55168 4.87153 6.55153 4.88713C6.55138 4.90273 6.54809 4.91763 6.54165 4.93184ZM0 4.87893L0 4.82005C0.0292498 4.78033 0.0532586 4.73766 0.0720264 4.69204C0.0907943 4.64642 0.103763 4.59921 0.110933 4.5504C0.203093 3.53493 0.278187 2.52032 0.337067 1.50485C0.339627 1.47328 0.354987 1.45707 0.384853 1.45707L1.65632 1.45707C1.66741 1.45707 1.67851 1.46219 1.68704 1.47157C1.69472 1.48011 1.69899 1.49205 1.69813 1.504C1.66461 1.97179 1.62915 2.43943 1.59175 2.90692C1.55434 3.37441 1.51499 3.84174 1.47371 4.30891C1.41397 4.98731 1.19723 5.89526 0.744106 6.44565C0.715093 6.48064 0.690346 6.47723 0.671573 6.43456L0 4.87893ZM8.67157 7.16331L6.83008 7.16331L6.59541 7.07029C6.56213 7.05749 6.55275 7.03445 6.56811 7.00118L7.14581 5.67851C7.16288 5.64011 7.19019 5.6256 7.22944 5.63584C7.86091 5.80736 8.59221 5.73654 9.23819 5.7391C9.27829 5.73995 9.28939 5.75958 9.27232 5.79712L8.67157 7.16246L8.67157 7.16331Z" fill-rule="nonzero" fill="rgb(255, 255, 255)"/>
	</g>
</svg>
