<?xml version="1.0" encoding="utf-8" ?>
<svg xmlns="http://www.w3.org/2000/svg" xmlns:xlink="http://www.w3.org/1999/xlink" width="24.9883" height="14" viewBox="0 0 24.9883 14">
	<path transform="matrix(1 0 0 1 2.98844 2.69587)" d="M15.8914 0L17.4664 0L17.4664 0.563989C17.4664 0.608988 17.4884 0.629987 17.5314 0.628988C18.4653 0.600988 19.4063 0.630987 19.8883 1.58897C20.1753 2.15696 20.1163 3.02094 20.1003 3.69893C20.0993 3.73893 20.1183 3.76093 20.1563 3.76493C20.2663 3.77493 20.3733 3.78493 20.4773 3.79793C22.3343 4.02092 21.9673 5.77189 21.9733 7.14786C21.9763 7.62785 21.9223 7.97884 21.8133 8.20284C21.5833 8.66683 21.1713 8.93283 20.5773 8.99883L19.4193 8.99883L18.8273 7.62485C18.8243 7.61803 18.8231 7.61091 18.8236 7.60348C18.8242 7.59605 18.8264 7.58917 18.8303 7.58285C18.8342 7.57668 18.8394 7.57181 18.8458 7.56826C18.8522 7.56471 18.859 7.56291 18.8663 7.56285L20.1223 7.56185C20.1923 7.56185 20.2583 7.53185 20.3063 7.47985C20.3306 7.45364 20.3491 7.42385 20.3619 7.39049C20.3747 7.35713 20.3808 7.32258 20.3803 7.28686C20.3743 6.86687 20.3713 6.44787 20.3733 6.02888C20.3733 5.65189 20.1953 5.45889 19.8363 5.44889C19.4303 5.4389 18.6613 5.4389 17.5284 5.45089C17.4884 5.45089 17.4684 5.4729 17.4684 5.51589L17.4624 8.99883L15.8894 8.99883L15.8844 5.50089C15.885 5.48358 15.8793 5.46865 15.8673 5.45611C15.8554 5.44357 15.8407 5.43717 15.8234 5.4369L14.3534 5.4369C14.3345 5.43636 14.3184 5.42929 14.3052 5.4157C14.292 5.40211 14.2854 5.38584 14.2854 5.3669L14.2874 3.84493C14.2874 3.79393 14.3114 3.76793 14.3594 3.76793L15.8124 3.77093C15.8219 3.77086 15.831 3.76891 15.8397 3.76509C15.8484 3.76126 15.8559 3.75588 15.8624 3.74893C15.8689 3.74184 15.8739 3.73381 15.8773 3.72483C15.8808 3.71585 15.8825 3.70655 15.8824 3.69693L15.8824 2.38095C15.883 2.35712 15.8751 2.33653 15.8587 2.31919C15.8423 2.30185 15.8222 2.29277 15.7984 2.29196L14.9014 2.29596C14.8544 2.29596 14.8314 2.27096 14.8314 2.22196L14.8284 0.691988C14.8284 0.646989 14.8484 0.624989 14.8934 0.624989L15.8224 0.624989C15.8624 0.624989 15.8824 0.60499 15.8824 0.561991L15.8924 1.67635e-06L15.8914 0ZM17.5224 3.77293L18.4993 3.77093C18.5153 3.77093 18.5303 3.76393 18.5413 3.75193C18.5469 3.74597 18.5512 3.73919 18.5541 3.73158C18.5571 3.72397 18.5585 3.71609 18.5583 3.70793L18.5533 2.48495C18.5533 2.38895 18.4833 2.31095 18.3983 2.31095L17.6144 2.31295C17.5931 2.31327 17.5729 2.31797 17.5537 2.32704C17.5345 2.33611 17.5181 2.34875 17.5044 2.36495C17.4895 2.38233 17.4781 2.40179 17.4704 2.42332C17.4626 2.44486 17.459 2.46707 17.4594 2.48995L17.4644 3.71293C17.4644 3.74693 17.4914 3.77293 17.5224 3.77293ZM7.41656 3.88292C7.03657 3.88992 6.34958 3.99592 6.19958 3.50693C6.10859 3.21494 6.31458 2.80795 6.43958 2.52295C6.79557 1.71197 7.14457 0.897983 7.48756 0.0809995C7.50156 0.0479997 7.52556 0.0310007 7.55956 0.0310007L9.06253 0.0310007C9.07553 0.0310007 9.08653 0.0380003 9.09253 0.0490005C9.09603 0.0543385 9.09813 0.0601792 9.09884 0.0665225C9.09954 0.0728658 9.09877 0.079025 9.09653 0.0850001L8.22654 2.11796C8.20654 2.16496 8.21154 2.21796 8.23755 2.26196C8.25033 2.28289 8.26739 2.29941 8.28873 2.3115C8.31007 2.3236 8.33301 2.32975 8.35754 2.32996L9.64552 2.32996C9.66152 2.32996 9.67552 2.33796 9.68452 2.35096C9.69252 2.36496 9.69452 2.38095 9.68752 2.39595C9.31553 3.26294 8.94453 4.12392 8.57454 4.9789C8.53754 5.0639 8.52154 5.1269 8.52754 5.1669C8.54054 5.2539 8.58954 5.2979 8.67354 5.2989L9.48852 5.3039C9.53552 5.3049 9.55052 5.3279 9.53152 5.3739L9.00453 6.61387C8.99701 6.63492 8.98405 6.6518 8.96566 6.66449C8.94726 6.67719 8.92688 6.68331 8.90453 6.68287C8.07655 6.69287 7.49756 6.69287 7.16757 6.67787C6.62158 6.65287 6.48758 6.17488 6.69957 5.68189L7.44856 3.93392C7.45078 3.92834 7.45162 3.92256 7.45109 3.91657C7.45056 3.91058 7.44872 3.90504 7.44556 3.89993C7.44247 3.89458 7.43825 3.89038 7.43287 3.88734C7.4275 3.8843 7.42173 3.88283 7.41556 3.88293L7.41656 3.88292ZM1.17168 8.99883L0.581694 8.99883L0.00370473 7.64185C0.000785928 7.63519 -0.000408191 7.62823 0.000122373 7.62098C0.000652938 7.61373 0.002847 7.60702 0.00670455 7.60085C0.0102193 7.59476 0.0150069 7.58994 0.0210675 7.58637C0.0271278 7.58281 0.0336732 7.58097 0.0407038 7.58085L0.856688 7.57885C0.909435 7.57776 0.954067 7.55818 0.990584 7.5201C1.0271 7.48202 1.0448 7.4366 1.04368 7.38386L1.06568 0.186999C1.06512 0.167475 1.0716 0.150661 1.08512 0.136559C1.09863 0.122458 1.11515 0.115272 1.13468 0.115001L2.53866 0.115001C2.60465 0.115001 2.63765 0.15 2.63865 0.218999C2.64465 2.65595 2.64465 5.05091 2.63865 7.40486C2.63465 8.37084 2.18666 9.03083 1.17168 8.99883Z" fill-rule="nonzero" fill="rgb(255, 255, 255)"/>
	<path transform="matrix(1 0 0 1 0.987396 3.30011)" d="M16.3417 8.39434L11.0158 8.39434L11.7298 6.78437C11.7371 6.76525 11.7493 6.75007 11.7664 6.73884C11.7835 6.72761 11.8023 6.72245 11.8228 6.72337L13.1267 6.72537C13.1727 6.72537 13.1967 6.70237 13.1967 6.65537L13.1967 1.77047C13.1967 1.72847 13.1767 1.70747 13.1367 1.70747L12.2718 1.70647C12.2328 1.70647 12.2018 1.67247 12.2018 1.63147L12.2018 0.0645C12.2018 0.0405006 12.2198 0.0205009 12.2428 0.0205009L15.7687 0.0205009C15.8127 0.0205009 15.8337 0.0435004 15.8337 0.0894994L15.8357 1.63947C15.8357 1.68447 15.8137 1.70747 15.7697 1.70747L14.8977 1.70747C14.8577 1.70747 14.8377 1.72847 14.8377 1.77047L14.8377 6.65237C14.8377 6.69937 14.8607 6.72237 14.9047 6.72237L16.2867 6.72537C16.3247 6.72537 16.3437 6.74537 16.3437 6.78537L16.3417 8.39534L16.3417 8.39434ZM22.6846 0.172497C23.7725 -0.575489 24.5385 1.33147 23.3465 1.65847C23.1526 1.71247 22.8436 1.71547 22.4206 1.66847C22.3826 1.66447 22.3646 1.64347 22.3646 1.60347C22.3586 1.15348 22.2696 0.457491 22.6846 0.173497L22.6846 0.172497ZM7.66585 5.77939L6.94587 7.45635C6.88087 7.60635 6.80987 7.60935 6.73087 7.46835C6.20088 6.51037 6.02088 5.72839 5.91689 4.53741C5.83689 3.61243 5.76789 2.68745 5.70789 1.76046C5.70589 1.71846 5.72489 1.69746 5.76489 1.69746L7.22386 1.69846C7.26486 1.69846 7.28786 1.72046 7.29086 1.76246C7.36586 2.84044 7.44486 3.91542 7.52686 4.9874C7.54785 5.26339 7.59485 5.49239 7.66685 5.67439C7.67407 5.69118 7.6776 5.70871 7.67742 5.72699C7.67725 5.74527 7.67339 5.76274 7.66585 5.77939ZM0 5.71739L0 5.64839C0.0342764 5.60184 0.0624112 5.55184 0.0844043 5.49838C0.106397 5.44492 0.121595 5.38959 0.129997 5.3324C0.237995 4.14242 0.325994 2.95344 0.394992 1.76347C0.397992 1.72647 0.415992 1.70747 0.450991 1.70747L1.94096 1.70747C1.95396 1.70747 1.96696 1.71347 1.97696 1.72447C1.98596 1.73447 1.99096 1.74847 1.98996 1.76247C1.95068 2.31064 1.90912 2.85865 1.86529 3.40648C1.82146 3.95431 1.77535 4.50195 1.72697 5.0494C1.65697 5.84439 1.40297 6.90837 0.871983 7.55335C0.837983 7.59435 0.808984 7.59035 0.786984 7.54035L0 5.71739ZM10.1618 8.39434L8.00385 8.39434L7.72885 8.28534C7.68985 8.27034 7.67885 8.24334 7.69685 8.20434L8.37384 6.65437C8.39384 6.60937 8.42584 6.59237 8.47184 6.60437C9.21182 6.80537 10.0688 6.72237 10.8258 6.72537C10.8728 6.72637 10.8858 6.74937 10.8658 6.79337L10.1618 8.39334L10.1618 8.39434Z" fill-rule="nonzero" fill="rgb(255, 255, 255)"/>
</svg>
